<svg width="350" height="367" viewBox="0 0 350 367" fill="none" xmlns="http://www.w3.org/2000/svg">
<path d="M1.57812 22V6H11.9844V8.42969H4.47656V12.7734H11.4453V15.2031H4.47656V19.5703H12.0469V22H1.57812ZM17.1289 10L19.5508 14.4297L22.0117 10H25.0039L21.3867 16L25.0664 22H22.0898L19.5508 17.6797L17.0352 22H14.0352L17.6914 16L14.1289 10H17.1289ZM27.1914 26.5V10H29.9727V11.9844H30.1367C30.2826 11.6927 30.4883 11.3828 30.7539 11.0547C31.0195 10.7214 31.3789 10.4375 31.832 10.2031C32.2852 9.96354 32.8633 9.84375 33.5664 9.84375C34.4935 9.84375 35.3294 10.0807 36.0742 10.5547C36.8242 11.0234 37.418 11.7187 37.8555 12.6406C38.2982 13.5573 38.5195 14.6823 38.5195 16.0156C38.5195 17.3333 38.3034 18.4531 37.8711 19.375C37.4388 20.2969 36.8503 21 36.1055 21.4844C35.3607 21.9688 34.5169 22.2109 33.5742 22.2109C32.8867 22.2109 32.3164 22.0964 31.8633 21.8672C31.4102 21.638 31.0456 21.362 30.7695 21.0391C30.4987 20.7109 30.2878 20.401 30.1367 20.1094H30.0195V26.5H27.1914ZM29.9648 16C29.9648 16.776 30.0742 17.4557 30.293 18.0391C30.5169 18.6224 30.8372 19.0781 31.2539 19.4062C31.6758 19.7292 32.1862 19.8906 32.7852 19.8906C33.4102 19.8906 33.9336 19.724 34.3555 19.3906C34.7773 19.0521 35.0951 18.5911 35.3086 18.0078C35.5273 17.4193 35.6367 16.75 35.6367 16C35.6367 15.2552 35.5299 14.5937 35.3164 14.0156C35.1029 13.4375 34.7852 12.9844 34.3633 12.6562C33.9414 12.3281 33.4154 12.1641 32.7852 12.1641C32.181 12.1641 31.668 12.3229 31.2461 12.6406C30.8242 12.9583 30.5039 13.4036 30.2852 13.9766C30.0716 14.5495 29.9648 15.224 29.9648 16ZM46.2539 22.2344C45.0508 22.2344 44.0117 21.9844 43.1367 21.4844C42.2669 20.9792 41.5977 20.2656 41.1289 19.3437C40.6602 18.4167 40.4258 17.3255 40.4258 16.0703C40.4258 14.8359 40.6602 13.7526 41.1289 12.8203C41.6029 11.8828 42.2643 11.1536 43.1133 10.6328C43.9622 10.1068 44.9596 9.84375 46.1055 9.84375C46.8451 9.84375 47.543 9.96354 48.1992 10.2031C48.8607 10.4375 49.444 10.8021 49.9492 11.2969C50.4596 11.7917 50.8607 12.4219 51.1523 13.1875C51.444 13.9479 51.5898 14.8542 51.5898 15.9062V16.7734H41.7539V14.8672H48.8789C48.8737 14.3255 48.7565 13.8437 48.5273 13.4219C48.2982 12.9948 47.9779 12.6589 47.5664 12.4141C47.1602 12.1693 46.6862 12.0469 46.1445 12.0469C45.5664 12.0469 45.0586 12.1875 44.6211 12.4687C44.1836 12.7448 43.8424 13.1094 43.5977 13.5625C43.3581 14.0104 43.2357 14.5026 43.2305 15.0391V16.7031C43.2305 17.401 43.3581 18 43.6133 18.5C43.8685 18.9948 44.2253 19.375 44.6836 19.6406C45.1419 19.901 45.6784 20.0312 46.293 20.0312C46.7044 20.0312 47.0768 19.974 47.4102 19.8594C47.7435 19.7396 48.0326 19.5651 48.2773 19.3359C48.5221 19.1068 48.707 18.8229 48.832 18.4844L51.4727 18.7812C51.306 19.4792 50.9883 20.0885 50.5195 20.6094C50.056 21.125 49.4622 21.526 48.7383 21.8125C48.0143 22.0937 47.1862 22.2344 46.2539 22.2344ZM56.8105 14.9687V22H53.9824V10H56.6855V12.0391H56.8262C57.1022 11.3672 57.5423 10.8333 58.1465 10.4375C58.7559 10.0417 59.5085 9.84375 60.4043 9.84375C61.2324 9.84375 61.9538 10.0208 62.5684 10.375C63.1882 10.7292 63.6673 11.2422 64.0059 11.9141C64.3496 12.5859 64.5189 13.401 64.5137 14.3594V22H61.6855V14.7969C61.6855 13.9948 61.4772 13.3672 61.0605 12.9141C60.6491 12.4609 60.0788 12.2344 59.3496 12.2344C58.8548 12.2344 58.4147 12.3437 58.0293 12.5625C57.6491 12.776 57.3496 13.0859 57.1309 13.4922C56.9173 13.8984 56.8105 14.3906 56.8105 14.9687ZM76.873 13.1719L74.2949 13.4531C74.222 13.1927 74.0944 12.9479 73.9121 12.7188C73.735 12.4896 73.4954 12.3047 73.1934 12.1641C72.8913 12.0234 72.5215 11.9531 72.084 11.9531C71.4954 11.9531 71.0007 12.0807 70.5996 12.3359C70.2038 12.5911 70.0085 12.9219 70.0137 13.3281C70.0085 13.6771 70.1361 13.9609 70.3965 14.1797C70.6621 14.3984 71.0996 14.5781 71.709 14.7188L73.7559 15.1562C74.8913 15.401 75.735 15.7891 76.2871 16.3203C76.8444 16.8516 77.1257 17.5469 77.1309 18.4062C77.1257 19.1615 76.9043 19.8281 76.4668 20.4062C76.0345 20.9792 75.4329 21.4271 74.6621 21.75C73.8913 22.0729 73.0059 22.2344 72.0059 22.2344C70.5371 22.2344 69.3548 21.9271 68.459 21.3125C67.5632 20.6927 67.0293 19.8307 66.8574 18.7266L69.6152 18.4609C69.7402 19.0026 70.0059 19.4115 70.4121 19.6875C70.8184 19.9635 71.347 20.1016 71.998 20.1016C72.6699 20.1016 73.209 19.9635 73.6152 19.6875C74.0267 19.4115 74.2324 19.0703 74.2324 18.6641C74.2324 18.3203 74.0996 18.0365 73.834 17.8125C73.5736 17.5885 73.1673 17.4167 72.6152 17.2969L70.5684 16.8672C69.4173 16.6276 68.5658 16.224 68.0137 15.6562C67.4616 15.0833 67.1882 14.3594 67.1934 13.4844C67.1882 12.7448 67.3887 12.1042 67.7949 11.5625C68.2064 11.0156 68.7767 10.5937 69.5059 10.2969C70.2402 9.99479 71.0866 9.84375 72.0449 9.84375C73.4512 9.84375 74.5579 10.1432 75.3652 10.7422C76.1777 11.3411 76.6803 12.151 76.873 13.1719ZM84.7754 22.2344C83.5723 22.2344 82.5332 21.9844 81.6582 21.4844C80.7884 20.9792 80.1191 20.2656 79.6504 19.3437C79.1816 18.4167 78.9473 17.3255 78.9473 16.0703C78.9473 14.8359 79.1816 13.7526 79.6504 12.8203C80.1243 11.8828 80.7858 11.1536 81.6348 10.6328C82.4837 10.1068 83.4811 9.84375 84.627 9.84375C85.3665 9.84375 86.0645 9.96354 86.7207 10.2031C87.3822 10.4375 87.9655 10.8021 88.4707 11.2969C88.9811 11.7917 89.3822 12.4219 89.6738 13.1875C89.9655 13.9479 90.1113 14.8542 90.1113 15.9062V16.7734H80.2754V14.8672H87.4004C87.3952 14.3255 87.278 13.8437 87.0488 13.4219C86.8197 12.9948 86.4993 12.6589 86.0879 12.4141C85.6816 12.1693 85.2077 12.0469 84.666 12.0469C84.0879 12.0469 83.5801 12.1875 83.1426 12.4687C82.7051 12.7448 82.3639 13.1094 82.1191 13.5625C81.8796 14.0104 81.7572 14.5026 81.752 15.0391V16.7031C81.752 17.401 81.8796 18 82.1348 18.5C82.39 18.9948 82.7467 19.375 83.2051 19.6406C83.6634 19.901 84.1999 20.0312 84.8145 20.0312C85.2259 20.0312 85.5983 19.974 85.9316 19.8594C86.265 19.7396 86.554 19.5651 86.7988 19.3359C87.0436 19.1068 87.2285 18.8229 87.3535 18.4844L89.9941 18.7812C89.8275 19.4792 89.5098 20.0885 89.041 20.6094C88.5775 21.125 87.9837 21.526 87.2598 21.8125C86.5358 22.0937 85.7077 22.2344 84.7754 22.2344ZM106.781 10.3984C106.708 9.71615 106.401 9.1849 105.859 8.80469C105.323 8.42448 104.625 8.23437 103.766 8.23437C103.161 8.23437 102.643 8.32552 102.211 8.50781C101.779 8.6901 101.448 8.9375 101.219 9.25C100.99 9.5625 100.872 9.91927 100.867 10.3203C100.867 10.6536 100.943 10.9427 101.094 11.1875C101.25 11.4323 101.461 11.6406 101.727 11.8125C101.992 11.9792 102.286 12.1198 102.609 12.2344C102.932 12.349 103.258 12.4453 103.586 12.5234L105.086 12.8984C105.69 13.0391 106.271 13.2292 106.828 13.4687C107.391 13.7083 107.893 14.0104 108.336 14.375C108.784 14.7396 109.138 15.1797 109.398 15.6953C109.659 16.2109 109.789 16.8151 109.789 17.5078C109.789 18.4453 109.549 19.2708 109.07 19.9844C108.591 20.6927 107.898 21.2474 106.992 21.6484C106.091 22.0443 105 22.2422 103.719 22.2422C102.474 22.2422 101.393 22.0495 100.477 21.6641C99.5651 21.2786 98.8516 20.7161 98.3359 19.9766C97.8255 19.237 97.5495 18.3359 97.5078 17.2734H100.359C100.401 17.8307 100.573 18.2943 100.875 18.6641C101.177 19.0339 101.57 19.3099 102.055 19.4922C102.544 19.6745 103.091 19.7656 103.695 19.7656C104.326 19.7656 104.878 19.6719 105.352 19.4844C105.831 19.2917 106.206 19.026 106.477 18.6875C106.747 18.3437 106.885 17.9427 106.891 17.4844C106.885 17.0677 106.763 16.724 106.523 16.4531C106.284 16.1771 105.948 15.9479 105.516 15.7656C105.089 15.5781 104.589 15.4115 104.016 15.2656L102.195 14.7969C100.878 14.4583 99.8359 13.9453 99.0703 13.2578C98.3099 12.5651 97.9297 11.6458 97.9297 10.5C97.9297 9.55729 98.1849 8.73177 98.6953 8.02344C99.2109 7.3151 99.9115 6.76562 100.797 6.375C101.682 5.97917 102.685 5.78125 103.805 5.78125C104.94 5.78125 105.935 5.97917 106.789 6.375C107.648 6.76562 108.323 7.3099 108.813 8.00781C109.302 8.70052 109.555 9.4974 109.57 10.3984H106.781ZM118.24 10V12.1875H111.342V10H118.24ZM113.045 7.125H115.873V18.3906C115.873 18.7708 115.93 19.0625 116.045 19.2656C116.165 19.4635 116.321 19.599 116.514 19.6719C116.706 19.7448 116.92 19.7812 117.154 19.7812C117.331 19.7812 117.493 19.7682 117.639 19.7422C117.79 19.7161 117.904 19.6927 117.982 19.6719L118.459 21.8828C118.308 21.9349 118.092 21.9922 117.811 22.0547C117.535 22.1172 117.196 22.1536 116.795 22.1641C116.087 22.1849 115.449 22.0781 114.881 21.8437C114.313 21.6042 113.863 21.2344 113.529 20.7344C113.201 20.2344 113.04 19.6094 113.045 18.8594V7.125ZM124.059 22.2422C123.298 22.2422 122.613 22.1068 122.004 21.8359C121.4 21.5599 120.921 21.1536 120.566 20.6172C120.217 20.0807 120.043 19.4193 120.043 18.6328C120.043 17.9557 120.168 17.3958 120.418 16.9531C120.668 16.5104 121.009 16.1562 121.441 15.8906C121.874 15.625 122.361 15.4245 122.902 15.2891C123.449 15.1484 124.014 15.0469 124.598 14.9844C125.301 14.9115 125.871 14.8464 126.309 14.7891C126.746 14.7266 127.064 14.6328 127.262 14.5078C127.465 14.3776 127.566 14.1771 127.566 13.9062V13.8594C127.566 13.2708 127.392 12.8151 127.043 12.4922C126.694 12.1693 126.191 12.0078 125.535 12.0078C124.842 12.0078 124.293 12.1589 123.887 12.4609C123.486 12.763 123.215 13.1198 123.074 13.5312L120.434 13.1562C120.642 12.4271 120.986 11.8177 121.465 11.3281C121.944 10.8333 122.53 10.4635 123.223 10.2187C123.915 9.96875 124.681 9.84375 125.52 9.84375C126.098 9.84375 126.673 9.91146 127.246 10.0469C127.819 10.1823 128.342 10.4062 128.816 10.7187C129.29 11.026 129.671 11.4453 129.957 11.9766C130.249 12.5078 130.395 13.1719 130.395 13.9687V22H127.676V20.3516H127.582C127.41 20.6849 127.168 20.9974 126.855 21.2891C126.548 21.5755 126.16 21.8073 125.691 21.9844C125.228 22.1563 124.684 22.2422 124.059 22.2422ZM124.793 20.1641C125.361 20.1641 125.853 20.0521 126.27 19.8281C126.686 19.599 127.007 19.2969 127.23 18.9219C127.46 18.5469 127.574 18.138 127.574 17.6953V16.2812C127.486 16.3542 127.335 16.4219 127.121 16.4844C126.913 16.5469 126.678 16.6016 126.418 16.6484C126.158 16.6953 125.9 16.737 125.645 16.7734C125.389 16.8099 125.168 16.8411 124.98 16.8672C124.559 16.9245 124.181 17.0182 123.848 17.1484C123.514 17.2786 123.251 17.4609 123.059 17.6953C122.866 17.9245 122.77 18.2214 122.77 18.5859C122.77 19.1068 122.96 19.5 123.34 19.7656C123.72 20.0312 124.204 20.1641 124.793 20.1641ZM139.23 10V12.1875H132.332V10H139.23ZM134.035 7.125H136.863V18.3906C136.863 18.7708 136.921 19.0625 137.035 19.2656C137.155 19.4635 137.311 19.599 137.504 19.6719C137.697 19.7448 137.91 19.7812 138.145 19.7812C138.322 19.7812 138.483 19.7682 138.629 19.7422C138.78 19.7161 138.895 19.6927 138.973 19.6719L139.449 21.8828C139.298 21.9349 139.082 21.9922 138.801 22.0547C138.525 22.1172 138.186 22.1536 137.785 22.1641C137.077 22.1849 136.439 22.0781 135.871 21.8437C135.303 21.6042 134.853 21.2344 134.52 20.7344C134.191 20.2344 134.03 19.6094 134.035 18.8594V7.125ZM141.596 22V10H144.424V22H141.596ZM143.018 8.29688C142.57 8.29688 142.184 8.14844 141.861 7.85156C141.538 7.54948 141.377 7.1875 141.377 6.76562C141.377 6.33854 141.538 5.97656 141.861 5.67969C142.184 5.3776 142.57 5.22656 143.018 5.22656C143.471 5.22656 143.856 5.3776 144.174 5.67969C144.497 5.97656 144.658 6.33854 144.658 6.76562C144.658 7.1875 144.497 7.54948 144.174 7.85156C143.856 8.14844 143.471 8.29688 143.018 8.29688ZM156.816 13.1719L154.238 13.4531C154.165 13.1927 154.038 12.9479 153.855 12.7188C153.678 12.4896 153.439 12.3047 153.137 12.1641C152.835 12.0234 152.465 11.9531 152.027 11.9531C151.439 11.9531 150.944 12.0807 150.543 12.3359C150.147 12.5911 149.952 12.9219 149.957 13.3281C149.952 13.6771 150.079 13.9609 150.34 14.1797C150.605 14.3984 151.043 14.5781 151.652 14.7188L153.699 15.1562C154.835 15.401 155.678 15.7891 156.23 16.3203C156.788 16.8516 157.069 17.5469 157.074 18.4062C157.069 19.1615 156.848 19.8281 156.41 20.4062C155.978 20.9792 155.376 21.4271 154.605 21.75C153.835 22.0729 152.949 22.2344 151.949 22.2344C150.48 22.2344 149.298 21.9271 148.402 21.3125C147.507 20.6927 146.973 19.8307 146.801 18.7266L149.559 18.4609C149.684 19.0026 149.949 19.4115 150.355 19.6875C150.762 19.9635 151.29 20.1016 151.941 20.1016C152.613 20.1016 153.152 19.9635 153.559 19.6875C153.97 19.4115 154.176 19.0703 154.176 18.6641C154.176 18.3203 154.043 18.0365 153.777 17.8125C153.517 17.5885 153.111 17.4167 152.559 17.2969L150.512 16.8672C149.361 16.6276 148.509 16.224 147.957 15.6562C147.405 15.0833 147.132 14.3594 147.137 13.4844C147.132 12.7448 147.332 12.1042 147.738 11.5625C148.15 11.0156 148.72 10.5937 149.449 10.2969C150.184 9.99479 151.03 9.84375 151.988 9.84375C153.395 9.84375 154.501 10.1432 155.309 10.7422C156.121 11.3411 156.624 12.151 156.816 13.1719ZM165.398 10V12.1875H158.5V10H165.398ZM160.203 7.125H163.031V18.3906C163.031 18.7708 163.089 19.0625 163.203 19.2656C163.323 19.4635 163.479 19.599 163.672 19.6719C163.865 19.7448 164.078 19.7812 164.312 19.7812C164.49 19.7812 164.651 19.7682 164.797 19.7422C164.948 19.7161 165.063 19.6927 165.141 19.6719L165.617 21.8828C165.466 21.9349 165.25 21.9922 164.969 22.0547C164.693 22.1172 164.354 22.1536 163.953 22.1641C163.245 22.1849 162.607 22.0781 162.039 21.8437C161.471 21.6042 161.021 21.2344 160.688 20.7344C160.359 20.2344 160.198 19.6094 160.203 18.8594V7.125ZM167.764 22V10H170.592V22H167.764ZM169.186 8.29688C168.738 8.29688 168.352 8.14844 168.029 7.85156C167.706 7.54948 167.545 7.1875 167.545 6.76562C167.545 6.33854 167.706 5.97656 168.029 5.67969C168.352 5.3776 168.738 5.22656 169.186 5.22656C169.639 5.22656 170.024 5.3776 170.342 5.67969C170.665 5.97656 170.826 6.33854 170.826 6.76562C170.826 7.1875 170.665 7.54948 170.342 7.85156C170.024 8.14844 169.639 8.29688 169.186 8.29688ZM178.734 22.2344C177.536 22.2344 176.508 21.9714 175.648 21.4453C174.794 20.9193 174.135 20.1927 173.672 19.2656C173.214 18.3333 172.984 17.2604 172.984 16.0469C172.984 14.8281 173.219 13.7526 173.688 12.8203C174.156 11.8828 174.818 11.1536 175.672 10.6328C176.531 10.1068 177.547 9.84375 178.719 9.84375C179.693 9.84375 180.555 10.0234 181.305 10.3828C182.06 10.737 182.661 11.2396 183.109 11.8906C183.557 12.5365 183.813 13.2917 183.875 14.1562H181.172C181.063 13.5781 180.802 13.0964 180.391 12.7109C179.984 12.3203 179.44 12.125 178.758 12.125C178.18 12.125 177.672 12.2812 177.234 12.5937C176.797 12.901 176.456 13.3437 176.211 13.9219C175.971 14.5 175.852 15.1927 175.852 16C175.852 16.8177 175.971 17.5208 176.211 18.1094C176.451 18.6927 176.786 19.1432 177.219 19.4609C177.656 19.7734 178.169 19.9297 178.758 19.9297C179.174 19.9297 179.547 19.8516 179.875 19.6953C180.208 19.5339 180.487 19.3021 180.711 19C180.935 18.6979 181.089 18.3307 181.172 17.8984H183.875C183.807 18.7474 183.557 19.5 183.125 20.1562C182.693 20.8073 182.104 21.3177 181.359 21.6875C180.615 22.0521 179.74 22.2344 178.734 22.2344ZM195.682 13.1719L193.104 13.4531C193.031 13.1927 192.903 12.9479 192.721 12.7188C192.544 12.4896 192.304 12.3047 192.002 12.1641C191.7 12.0234 191.33 11.9531 190.893 11.9531C190.304 11.9531 189.809 12.0807 189.408 12.3359C189.012 12.5911 188.817 12.9219 188.822 13.3281C188.817 13.6771 188.945 13.9609 189.205 14.1797C189.471 14.3984 189.908 14.5781 190.518 14.7188L192.564 15.1562C193.7 15.401 194.544 15.7891 195.096 16.3203C195.653 16.8516 195.934 17.5469 195.939 18.4062C195.934 19.1615 195.713 19.8281 195.275 20.4062C194.843 20.9792 194.242 21.4271 193.471 21.75C192.7 22.0729 191.814 22.2344 190.814 22.2344C189.346 22.2344 188.163 21.9271 187.268 21.3125C186.372 20.6927 185.838 19.8307 185.666 18.7266L188.424 18.4609C188.549 19.0026 188.814 19.4115 189.221 19.6875C189.627 19.9635 190.156 20.1016 190.807 20.1016C191.479 20.1016 192.018 19.9635 192.424 19.6875C192.835 19.4115 193.041 19.0703 193.041 18.6641C193.041 18.3203 192.908 18.0365 192.643 17.8125C192.382 17.5885 191.976 17.4167 191.424 17.2969L189.377 16.8672C188.226 16.6276 187.374 16.224 186.822 15.6562C186.27 15.0833 185.997 14.3594 186.002 13.4844C185.997 12.7448 186.197 12.1042 186.604 11.5625C187.015 11.0156 187.585 10.5937 188.314 10.2969C189.049 9.99479 189.895 9.84375 190.854 9.84375C192.26 9.84375 193.367 10.1432 194.174 10.7422C194.986 11.3411 195.489 12.151 195.682 13.1719Z" fill="#343C6A"/>
<rect y="45" width="350" height="322" rx="25" fill="white"/>
<path d="M310.129 206.76C308.574 167.203 292.743 131.334 267.621 104.139L165 206.76H310.129Z" fill="#FC7900"/>
<path d="M153.891 205.218L246.783 112.327C222.378 89.7771 189.76 76 153.891 76C118.043 76 85.4241 89.7971 61 112.327L153.891 205.218Z" fill="#343C6A"/>
<path d="M158 216V335.668C222.938 333.116 275.116 280.938 277.668 216H158Z" fill="#232323"/>
<path d="M149.503 213.516L70.9868 135C52.3846 155.137 41 182.054 41 211.642C41 272.533 89.1703 322.158 149.483 324.531V213.516H149.503Z" fill="#396AFF"/>
<path d="M141.675 124.159C144.289 124.159 146.158 122.722 146.153 120.733C146.158 119.284 145.238 118.25 143.528 118.034V117.943C144.829 117.71 145.726 116.79 145.721 115.483C145.726 113.648 144.118 112.205 141.709 112.205C139.323 112.205 137.528 113.602 137.493 115.614H139.851C139.88 114.727 140.692 114.153 141.698 114.153C142.692 114.153 143.357 114.756 143.351 115.631C143.357 116.545 142.579 117.165 141.459 117.165H140.374V118.972H141.459C142.778 118.972 143.601 119.631 143.596 120.568C143.601 121.494 142.806 122.131 141.681 122.131C140.596 122.131 139.783 121.562 139.738 120.71H137.26C137.3 122.744 139.118 124.159 141.675 124.159ZM152.483 124.256C155.41 124.256 157.177 122.028 157.182 118.193C157.188 114.386 155.398 112.205 152.483 112.205C149.563 112.205 147.79 114.381 147.785 118.193C147.773 122.017 149.552 124.25 152.483 124.256ZM152.483 122.216C151.148 122.216 150.285 120.875 150.29 118.193C150.296 115.551 151.154 114.222 152.483 114.222C153.807 114.222 154.671 115.551 154.671 118.193C154.677 120.875 153.813 122.216 152.483 122.216ZM165.306 121.818C165.312 123.216 166.204 124.403 167.868 124.403C169.516 124.403 170.437 123.216 170.431 121.818V121.205C170.437 119.795 169.539 118.619 167.868 118.619C166.226 118.619 165.312 119.807 165.306 121.205V121.818ZM159.334 115.159C159.34 116.557 160.232 117.733 161.891 117.733C163.545 117.733 164.465 116.568 164.459 115.159V114.545C164.465 113.136 163.567 111.96 161.891 111.96C160.266 111.96 159.34 113.136 159.334 114.545V115.159ZM159.891 124H161.374L169.374 112.364H167.891L159.891 124ZM166.959 121.205C166.965 120.648 167.187 120.074 167.868 120.074C168.584 120.074 168.772 120.648 168.766 121.205V121.818C168.772 122.375 168.562 122.938 167.868 122.938C167.175 122.938 166.965 122.358 166.959 121.818V121.205ZM160.999 114.545C161.005 114.006 161.215 113.415 161.891 113.415C162.607 113.415 162.8 113.989 162.795 114.545V115.159C162.8 115.716 162.584 116.278 161.891 116.278C161.221 116.278 161.005 115.716 160.999 115.159V114.545ZM109.18 142H115.57V140.352H111.179V138.094H115.223V136.446H111.179V134.194H115.551V132.545H109.18V142ZM119.07 137.901C119.075 136.987 119.619 136.451 120.413 136.451C121.203 136.451 121.678 136.968 121.674 137.836V142H123.64V137.485C123.64 135.832 122.671 134.817 121.194 134.817C120.141 134.817 119.379 135.334 119.061 136.16H118.978V134.909H117.103V142H119.07V137.901ZM128.962 134.909H127.628V133.21H125.661V134.909H124.692V136.386H125.661V140.08C125.652 141.469 126.598 142.157 128.025 142.097C128.533 142.078 128.893 141.977 129.091 141.912L128.782 140.449C128.685 140.467 128.477 140.513 128.293 140.513C127.9 140.513 127.628 140.366 127.628 139.821V136.386H128.962V134.909ZM133.398 142.138C135.153 142.138 136.335 141.284 136.612 139.969L134.793 139.849C134.594 140.389 134.086 140.67 133.431 140.67C132.447 140.67 131.824 140.02 131.824 138.962V138.958H136.653V138.418C136.653 136.008 135.194 134.817 133.32 134.817C131.233 134.817 129.881 136.299 129.881 138.487C129.881 140.735 131.215 142.138 133.398 142.138ZM131.824 137.739C131.866 136.931 132.48 136.285 133.352 136.285C134.206 136.285 134.797 136.894 134.802 137.739H131.824ZM137.936 142H139.903V137.988C139.903 137.116 140.54 136.516 141.408 136.516C141.68 136.516 142.054 136.562 142.239 136.622V134.877C142.064 134.835 141.819 134.808 141.62 134.808C140.826 134.808 140.175 135.269 139.917 136.146H139.843V134.909H137.936V142ZM147.383 134.909H146.049V133.21H144.082V134.909H143.113V136.386H144.082V140.08C144.073 141.469 145.019 142.157 146.446 142.097C146.954 142.078 147.314 141.977 147.512 141.912L147.203 140.449C147.106 140.467 146.898 140.513 146.714 140.513C146.321 140.513 146.049 140.366 146.049 139.821V136.386H147.383V134.909ZM150.686 142.134C151.734 142.134 152.413 141.677 152.759 141.017H152.814V142H154.679V137.217C154.679 135.528 153.248 134.817 151.669 134.817C149.97 134.817 148.853 135.629 148.581 136.922L150.4 137.07C150.534 136.599 150.954 136.252 151.66 136.252C152.329 136.252 152.713 136.589 152.713 137.171V137.199C152.713 137.656 152.228 137.716 150.995 137.836C149.592 137.965 148.332 138.436 148.332 140.02C148.332 141.423 149.333 142.134 150.686 142.134ZM151.249 140.777C150.644 140.777 150.21 140.495 150.21 139.955C150.21 139.401 150.668 139.129 151.36 139.032C151.789 138.972 152.491 138.87 152.726 138.713V139.466C152.726 140.209 152.112 140.777 151.249 140.777ZM156.205 142H158.172V134.909H156.205V142ZM157.193 133.995C157.779 133.995 158.259 133.547 158.259 132.998C158.259 132.453 157.779 132.005 157.193 132.005C156.611 132.005 156.131 132.453 156.131 132.998C156.131 133.547 156.611 133.995 157.193 133.995ZM161.714 137.901C161.718 136.987 162.263 136.451 163.057 136.451C163.846 136.451 164.322 136.968 164.317 137.836V142H166.284V137.485C166.284 135.832 165.314 134.817 163.837 134.817C162.785 134.817 162.023 135.334 161.704 136.16H161.621V134.909H159.747V142H161.714V137.901ZM167.834 142H169.801V137.744C169.801 136.959 170.299 136.437 170.955 136.437C171.601 136.437 172.035 136.88 172.035 137.577V142H173.941V137.67C173.941 136.936 174.362 136.437 175.077 136.437C175.705 136.437 176.176 136.83 176.176 137.619V142H178.138V137.231C178.138 135.694 177.224 134.817 175.903 134.817C174.865 134.817 174.057 135.348 173.766 136.16H173.692C173.466 135.338 172.741 134.817 171.767 134.817C170.812 134.817 170.087 135.325 169.791 136.16H169.708V134.909H167.834V142ZM182.923 142.138C184.677 142.138 185.859 141.284 186.136 139.969L184.317 139.849C184.119 140.389 183.611 140.67 182.955 140.67C181.972 140.67 181.349 140.02 181.349 138.962V138.958H186.177V138.418C186.177 136.008 184.719 134.817 182.844 134.817C180.758 134.817 179.405 136.299 179.405 138.487C179.405 140.735 180.739 142.138 182.923 142.138ZM181.349 137.739C181.39 136.931 182.004 136.285 182.877 136.285C183.731 136.285 184.322 136.894 184.326 137.739H181.349ZM189.427 137.901C189.432 136.987 189.977 136.451 190.771 136.451C191.56 136.451 192.036 136.968 192.031 137.836V142H193.998V137.485C193.998 135.832 193.028 134.817 191.551 134.817C190.498 134.817 189.737 135.334 189.418 136.16H189.335V134.909H187.461V142H189.427V137.901ZM199.319 134.909H197.985V133.21H196.019V134.909H195.049V136.386H196.019V140.08C196.009 141.469 196.956 142.157 198.382 142.097C198.89 142.078 199.25 141.977 199.449 141.912L199.139 140.449C199.042 140.467 198.835 140.513 198.65 140.513C198.258 140.513 197.985 140.366 197.985 139.821V136.386H199.319V134.909Z" fill="white"/>
<path d="M78.9157 224H87.2112V221.989H82.3248V221.909L84.0237 220.244C86.4157 218.062 87.0578 216.972 87.0578 215.648C87.0578 213.631 85.41 212.205 82.9157 212.205C80.4725 212.205 78.7964 213.665 78.8021 215.949H81.1373C81.1316 214.835 81.8362 214.153 82.8987 214.153C83.9214 214.153 84.6828 214.79 84.6828 215.812C84.6828 216.739 84.1146 217.375 83.0578 218.392L78.9157 222.227V224ZM93.5563 224.256C96.4825 224.256 98.2495 222.028 98.2552 218.193C98.2609 214.386 96.4711 212.205 93.5563 212.205C90.6359 212.205 88.8632 214.381 88.8575 218.193C88.8461 222.017 90.6245 224.25 93.5563 224.256ZM93.5563 222.216C92.2211 222.216 91.3575 220.875 91.3632 218.193C91.3688 215.551 92.2268 214.222 93.5563 214.222C94.8802 214.222 95.7438 215.551 95.7438 218.193C95.7495 220.875 94.8859 222.216 93.5563 222.216ZM106.379 221.818C106.384 223.216 107.277 224.403 108.941 224.403C110.589 224.403 111.509 223.216 111.504 221.818V221.205C111.509 219.795 110.612 218.619 108.941 218.619C107.299 218.619 106.384 219.807 106.379 221.205V221.818ZM100.407 215.159C100.413 216.557 101.305 217.733 102.964 217.733C104.617 217.733 105.538 216.568 105.532 215.159V214.545C105.538 213.136 104.64 211.96 102.964 211.96C101.339 211.96 100.413 213.136 100.407 214.545V215.159ZM100.964 224H102.447L110.447 212.364H108.964L100.964 224ZM108.032 221.205C108.038 220.648 108.259 220.074 108.941 220.074C109.657 220.074 109.845 220.648 109.839 221.205V221.818C109.845 222.375 109.634 222.938 108.941 222.938C108.248 222.938 108.038 222.358 108.032 221.818V221.205ZM102.072 214.545C102.078 214.006 102.288 213.415 102.964 213.415C103.68 213.415 103.873 213.989 103.867 214.545V215.159C103.873 215.716 103.657 216.278 102.964 216.278C102.294 216.278 102.078 215.716 102.072 215.159V214.545ZM62.3445 232.545H60.3455V242H62.3445V232.545ZM65.9188 237.901C65.9234 236.987 66.4681 236.451 67.2622 236.451C68.0516 236.451 68.5271 236.968 68.5225 237.836V242H70.4891V237.485C70.4891 235.832 69.5196 234.817 68.0424 234.817C66.9898 234.817 66.2281 235.334 65.9095 236.16H65.8264V234.909H63.9522V242H65.9188V237.901ZM78.396 234.909H76.3139L74.8459 239.983H74.772L73.2994 234.909H71.222L73.701 242H75.9169L78.396 234.909ZM82.3927 242.138C84.1469 242.138 85.3288 241.284 85.6057 239.969L83.7869 239.849C83.5883 240.389 83.0805 240.67 82.425 240.67C81.4417 240.67 80.8185 240.02 80.8185 238.962V238.958H85.6473V238.418C85.6473 236.008 84.1885 234.817 82.3142 234.817C80.2276 234.817 78.8749 236.299 78.8749 238.487C78.8749 240.735 80.2091 242.138 82.3927 242.138ZM80.8185 237.739C80.86 236.931 81.474 236.285 82.3465 236.285C83.2006 236.285 83.7915 236.894 83.7961 237.739H80.8185ZM92.8305 236.931C92.6551 235.625 91.6026 234.817 89.8114 234.817C87.9971 234.817 86.8014 235.657 86.806 237.023C86.8014 238.085 87.4708 238.773 88.8557 239.05L90.0837 239.295C90.7023 239.419 90.9839 239.646 90.9932 240.001C90.9839 240.421 90.5269 240.721 89.8391 240.721C89.1374 240.721 88.6711 240.421 88.5511 239.844L86.6168 239.946C86.8014 241.303 87.9555 242.138 89.8344 242.138C91.6718 242.138 92.9875 241.201 92.9921 239.803C92.9875 238.778 92.3181 238.164 90.9424 237.882L89.659 237.624C88.9989 237.48 88.7542 237.254 88.7588 236.913C88.7542 236.488 89.2343 236.211 89.8437 236.211C90.5269 236.211 90.9332 236.585 91.0301 237.042L92.8305 236.931ZM98.0021 234.909H96.668V233.21H94.7014V234.909H93.7319V236.386H94.7014V240.08C94.6921 241.469 95.6385 242.157 97.065 242.097C97.5728 242.078 97.9329 241.977 98.1314 241.912L97.8221 240.449C97.7252 240.467 97.5174 240.513 97.3328 240.513C96.9404 240.513 96.668 240.366 96.668 239.821V236.386H98.0021V234.909ZM99.2832 242H101.25V237.744C101.25 236.959 101.748 236.437 102.404 236.437C103.05 236.437 103.484 236.88 103.484 237.577V242H105.391V237.67C105.391 236.936 105.811 236.437 106.526 236.437C107.154 236.437 107.625 236.83 107.625 237.619V242H109.587V237.231C109.587 235.694 108.673 234.817 107.353 234.817C106.314 234.817 105.506 235.348 105.215 236.16H105.142C104.915 235.338 104.191 234.817 103.216 234.817C102.261 234.817 101.536 235.325 101.241 236.16H101.158V234.909H99.2832V242ZM114.372 242.138C116.126 242.138 117.308 241.284 117.585 239.969L115.766 239.849C115.568 240.389 115.06 240.67 114.404 240.67C113.421 240.67 112.798 240.02 112.798 238.962V238.958H117.627V238.418C117.627 236.008 116.168 234.817 114.294 234.817C112.207 234.817 110.854 236.299 110.854 238.487C110.854 240.735 112.189 242.138 114.372 242.138ZM112.798 237.739C112.839 236.931 113.453 236.285 114.326 236.285C115.18 236.285 115.771 236.894 115.776 237.739H112.798ZM120.877 237.901C120.881 236.987 121.426 236.451 122.22 236.451C123.01 236.451 123.485 236.968 123.48 237.836V242H125.447V237.485C125.447 235.832 124.478 234.817 123 234.817C121.948 234.817 121.186 235.334 120.868 236.16H120.784V234.909H118.91V242H120.877V237.901ZM130.769 234.909H129.435V233.21H127.468V234.909H126.499V236.386H127.468V240.08C127.459 241.469 128.405 242.157 129.832 242.097C130.339 242.078 130.699 241.977 130.898 241.912L130.589 240.449C130.492 240.467 130.284 240.513 130.099 240.513C129.707 240.513 129.435 240.366 129.435 239.821V236.386H130.769V234.909Z" fill="white"/>
<path d="M231.269 162.655H228.956L226.075 164.479V166.66L228.74 164.99H228.808V174.291H231.269V162.655ZM238.284 174.45C240.875 174.45 242.637 172.763 242.631 170.41C242.637 168.183 241.08 166.581 238.983 166.581C237.96 166.581 237.08 167.007 236.671 167.581H236.602L236.904 164.666H241.989V162.655H234.875L234.324 168.791L236.512 169.183C236.87 168.7 237.563 168.399 238.25 168.399C239.421 168.405 240.262 169.251 240.262 170.473C240.262 171.683 239.438 172.518 238.284 172.518C237.307 172.518 236.517 171.905 236.46 171.001H234.074C234.12 173.013 235.875 174.45 238.284 174.45ZM250.716 172.109C250.722 173.507 251.614 174.694 253.279 174.694C254.926 174.694 255.847 173.507 255.841 172.109V171.496C255.847 170.086 254.949 168.91 253.279 168.91C251.637 168.91 250.722 170.098 250.716 171.496V172.109ZM244.745 165.45C244.75 166.848 245.642 168.024 247.301 168.024C248.955 168.024 249.875 166.859 249.87 165.45V164.836C249.875 163.427 248.977 162.251 247.301 162.251C245.676 162.251 244.75 163.427 244.745 164.836V165.45ZM245.301 174.291H246.784L254.784 162.655H253.301L245.301 174.291ZM252.37 171.496C252.375 170.939 252.597 170.365 253.279 170.365C253.995 170.365 254.182 170.939 254.176 171.496V172.109C254.182 172.666 253.972 173.229 253.279 173.229C252.585 173.229 252.375 172.649 252.37 172.109V171.496ZM246.409 164.836C246.415 164.297 246.625 163.706 247.301 163.706C248.017 163.706 248.21 164.28 248.205 164.836V165.45C248.21 166.007 247.995 166.569 247.301 166.569C246.631 166.569 246.415 166.007 246.409 165.45V164.836ZM203.627 192.291H207.666C209.79 192.291 210.921 191.183 210.921 189.678C210.921 188.279 209.919 187.434 208.843 187.384V187.291C209.827 187.07 210.551 186.373 210.551 185.26C210.551 183.843 209.499 182.836 207.412 182.836H203.627V192.291ZM205.626 190.657V188.145H207.301C208.262 188.145 208.857 188.699 208.857 189.48C208.857 190.191 208.372 190.657 207.255 190.657H205.626ZM205.626 186.793V184.452H207.144C208.031 184.452 208.534 184.909 208.534 185.593C208.534 186.34 207.925 186.793 207.108 186.793H205.626ZM212.185 192.291H214.151V185.2H212.185V192.291ZM213.172 184.286C213.759 184.286 214.239 183.838 214.239 183.289C214.239 182.744 213.759 182.296 213.172 182.296C212.591 182.296 212.111 182.744 212.111 183.289C212.111 183.838 212.591 184.286 213.172 184.286ZM217.693 182.836H215.726V192.291H217.693V182.836ZM221.235 182.836H219.268V192.291H221.235V182.836ZM225.856 192.291H232.245V190.643H227.855V188.385H231.899V186.737H227.855V184.485H232.227V182.836H225.856V192.291ZM235.423 185.2H233.391L235.423 188.746L233.318 192.291H235.349L236.725 189.84L238.123 192.291H240.132L238.022 188.746L240.076 185.2H238.059L236.725 187.679L235.423 185.2ZM241.244 194.95H243.211V191.155H243.271C243.543 191.746 244.139 192.406 245.283 192.406C246.899 192.406 248.16 191.128 248.16 188.755C248.16 186.317 246.844 185.108 245.288 185.108C244.102 185.108 243.534 185.814 243.271 186.391H243.183V185.2H241.244V194.95ZM243.169 188.746C243.169 187.481 243.705 186.673 244.66 186.673C245.634 186.673 246.151 187.518 246.151 188.746C246.151 189.983 245.625 190.841 244.66 190.841C243.714 190.841 243.169 190.01 243.169 188.746ZM252.702 192.43C254.456 192.43 255.638 191.575 255.915 190.26L254.096 190.14C253.898 190.68 253.39 190.961 252.734 190.961C251.751 190.961 251.128 190.311 251.128 189.253V189.249H255.957V188.709C255.957 186.299 254.498 185.108 252.624 185.108C250.537 185.108 249.184 186.59 249.184 188.778C249.184 191.026 250.519 192.43 252.702 192.43ZM251.128 188.03C251.169 187.222 251.783 186.576 252.656 186.576C253.51 186.576 254.101 187.185 254.106 188.03H251.128ZM259.207 188.192C259.211 187.278 259.756 186.742 260.55 186.742C261.34 186.742 261.815 187.259 261.81 188.127V192.291H263.777V187.776C263.777 186.123 262.808 185.108 261.33 185.108C260.278 185.108 259.516 185.625 259.198 186.451H259.114V185.2H257.24V192.291H259.207V188.192ZM271.227 187.222C271.052 185.916 269.999 185.108 268.208 185.108C266.393 185.108 265.198 185.948 265.202 187.314C265.198 188.376 265.867 189.064 267.252 189.341L268.48 189.586C269.099 189.71 269.38 189.937 269.39 190.292C269.38 190.712 268.923 191.012 268.235 191.012C267.534 191.012 267.067 190.712 266.947 190.135L265.013 190.237C265.198 191.594 266.352 192.43 268.231 192.43C270.068 192.43 271.384 191.492 271.389 190.094C271.384 189.069 270.715 188.455 269.339 188.173L268.055 187.915C267.395 187.771 267.151 187.545 267.155 187.204C267.151 186.779 267.631 186.502 268.24 186.502C268.923 186.502 269.33 186.876 269.427 187.333L271.227 187.222ZM275.858 192.43C277.613 192.43 278.795 191.575 279.071 190.26L277.253 190.14C277.054 190.68 276.546 190.961 275.891 190.961C274.907 190.961 274.284 190.311 274.284 189.253V189.249H279.113V188.709C279.113 186.299 277.654 185.108 275.78 185.108C273.693 185.108 272.341 186.59 272.341 188.778C272.341 191.026 273.675 192.43 275.858 192.43ZM274.284 188.03C274.326 187.222 274.94 186.576 275.812 186.576C276.666 186.576 277.257 187.185 277.262 188.03H274.284Z" fill="white"/>
<path d="M206.139 254.159C208.753 254.159 210.622 252.722 210.616 250.733C210.622 249.284 209.702 248.25 207.991 248.034V247.943C209.292 247.71 210.19 246.79 210.185 245.483C210.19 243.648 208.582 242.205 206.173 242.205C203.787 242.205 201.991 243.602 201.957 245.614H204.315C204.344 244.727 205.156 244.153 206.162 244.153C207.156 244.153 207.821 244.756 207.815 245.631C207.821 246.545 207.042 247.165 205.923 247.165H204.838V248.972H205.923C207.241 248.972 208.065 249.631 208.06 250.568C208.065 251.494 207.27 252.131 206.145 252.131C205.06 252.131 204.247 251.562 204.202 250.71H201.724C201.764 252.744 203.582 254.159 206.139 254.159ZM216.635 254.159C219.226 254.159 220.987 252.472 220.981 250.119C220.987 247.892 219.43 246.29 217.334 246.29C216.311 246.29 215.43 246.716 215.021 247.29H214.953L215.254 244.375H220.339V242.364H213.226L212.675 248.5L214.862 248.892C215.22 248.409 215.913 248.108 216.601 248.108C217.771 248.114 218.612 248.96 218.612 250.182C218.612 251.392 217.788 252.227 216.635 252.227C215.658 252.227 214.868 251.614 214.811 250.71H212.425C212.47 252.722 214.226 254.159 216.635 254.159ZM229.067 251.818C229.072 253.216 229.964 254.403 231.629 254.403C233.277 254.403 234.197 253.216 234.192 251.818V251.205C234.197 249.795 233.3 248.619 231.629 248.619C229.987 248.619 229.072 249.807 229.067 251.205V251.818ZM223.095 245.159C223.101 246.557 223.993 247.733 225.652 247.733C227.305 247.733 228.226 246.568 228.22 245.159V244.545C228.226 243.136 227.328 241.96 225.652 241.96C224.027 241.96 223.101 243.136 223.095 244.545V245.159ZM223.652 254H225.135L233.135 242.364H231.652L223.652 254ZM230.72 251.205C230.726 250.648 230.947 250.074 231.629 250.074C232.345 250.074 232.533 250.648 232.527 251.205V251.818C232.533 252.375 232.322 252.938 231.629 252.938C230.936 252.938 230.726 252.358 230.72 251.818V251.205ZM224.76 244.545C224.765 244.006 224.976 243.415 225.652 243.415C226.368 243.415 226.561 243.989 226.555 244.545V245.159C226.561 245.716 226.345 246.278 225.652 246.278C224.981 246.278 224.765 245.716 224.76 245.159V244.545ZM205.772 267.273C205.772 264.18 203.851 262.416 201.345 262.416C198.824 262.416 196.917 264.18 196.917 267.273C196.917 270.352 198.824 272.129 201.345 272.129C203.851 272.129 205.772 270.366 205.772 267.273ZM203.745 267.273C203.745 269.276 202.794 270.361 201.345 270.361C199.89 270.361 198.944 269.276 198.944 267.273C198.944 265.269 199.89 264.184 201.345 264.184C202.794 264.184 203.745 265.269 203.745 267.273ZM210.987 264.909H209.653V263.21H207.687V264.909H206.717V266.386H207.687V270.08C207.677 271.469 208.624 272.157 210.05 272.097C210.558 272.078 210.918 271.977 211.117 271.912L210.807 270.449C210.71 270.467 210.503 270.513 210.318 270.513C209.926 270.513 209.653 270.366 209.653 269.821V266.386H210.987V264.909ZM214.387 267.901C214.392 266.987 214.951 266.451 215.754 266.451C216.552 266.451 217.023 266.963 217.019 267.836V272H218.985V267.485C218.99 265.823 218.011 264.817 216.534 264.817C215.458 264.817 214.738 265.325 214.415 266.16H214.332V262.545H212.421V272H214.387V267.901ZM223.765 272.138C225.519 272.138 226.701 271.284 226.978 269.969L225.159 269.849C224.96 270.389 224.452 270.67 223.797 270.67C222.814 270.67 222.19 270.02 222.19 268.962V268.958H227.019V268.418C227.019 266.008 225.56 264.817 223.686 264.817C221.599 264.817 220.247 266.299 220.247 268.487C220.247 270.735 221.581 272.138 223.765 272.138ZM222.19 267.739C222.232 266.931 222.846 266.285 223.718 266.285C224.572 266.285 225.163 266.894 225.168 267.739H222.19ZM228.303 272H230.269V267.988C230.269 267.116 230.906 266.516 231.774 266.516C232.047 266.516 232.42 266.562 232.605 266.622V264.877C232.43 264.835 232.185 264.808 231.987 264.808C231.193 264.808 230.542 265.269 230.283 266.146H230.209V264.909H228.303V272ZM239.522 266.931C239.346 265.625 238.294 264.817 236.503 264.817C234.688 264.817 233.493 265.657 233.497 267.023C233.493 268.085 234.162 268.773 235.547 269.05L236.775 269.295C237.394 269.419 237.675 269.646 237.684 270.001C237.675 270.421 237.218 270.721 236.53 270.721C235.829 270.721 235.362 270.421 235.242 269.844L233.308 269.946C233.493 271.303 234.647 272.138 236.526 272.138C238.363 272.138 239.679 271.201 239.683 269.803C239.679 268.778 239.009 268.164 237.634 267.882L236.35 267.624C235.69 267.48 235.445 267.254 235.45 266.913C235.445 266.488 235.926 266.211 236.535 266.211C237.218 266.211 237.624 266.585 237.721 267.042L239.522 266.931Z" fill="white"/>
</svg>
