<svg width="350" height="282" viewBox="0 0 350 282" fill="none" xmlns="http://www.w3.org/2000/svg">
<path d="M1.57812 22V6H7.57813C8.80729 6 9.83854 6.21354 10.6719 6.64062C11.5104 7.06771 12.1432 7.66667 12.5703 8.4375C13.0026 9.20312 13.2188 10.0964 13.2188 11.1172C13.2188 12.1432 13 13.0339 12.5625 13.7891C12.1302 14.5391 11.4922 15.1198 10.6484 15.5312C9.80469 15.9375 8.76823 16.1406 7.53906 16.1406H3.26562V13.7344H7.14844C7.86719 13.7344 8.45573 13.6354 8.91406 13.4375C9.3724 13.2344 9.71094 12.9401 9.92969 12.5547C10.1536 12.1641 10.2656 11.6849 10.2656 11.1172C10.2656 10.5495 10.1536 10.0651 9.92969 9.66406C9.70573 9.25781 9.36458 8.95052 8.90625 8.74219C8.44792 8.52865 7.85677 8.42188 7.13281 8.42188H4.47656V22H1.57812ZM9.84375 14.75L13.8047 22H10.5703L6.67969 14.75H9.84375ZM20.9023 22.2344C19.6992 22.2344 18.6602 21.9844 17.7852 21.4844C16.9154 20.9792 16.2461 20.2656 15.7773 19.3437C15.3086 18.4167 15.0742 17.3255 15.0742 16.0703C15.0742 14.8359 15.3086 13.7526 15.7773 12.8203C16.2513 11.8828 16.9128 11.1536 17.7617 10.6328C18.6107 10.1068 19.6081 9.84375 20.7539 9.84375C21.4935 9.84375 22.1914 9.96354 22.8477 10.2031C23.5091 10.4375 24.0924 10.8021 24.5977 11.2969C25.1081 11.7917 25.5091 12.4219 25.8008 13.1875C26.0924 13.9479 26.2383 14.8542 26.2383 15.9062V16.7734H16.4023V14.8672H23.5273C23.5221 14.3255 23.4049 13.8437 23.1758 13.4219C22.9466 12.9948 22.6263 12.6589 22.2148 12.4141C21.8086 12.1693 21.3346 12.0469 20.793 12.0469C20.2148 12.0469 19.707 12.1875 19.2695 12.4687C18.832 12.7448 18.4909 13.1094 18.2461 13.5625C18.0065 14.0104 17.8841 14.5026 17.8789 15.0391V16.7031C17.8789 17.401 18.0065 18 18.2617 18.5C18.5169 18.9948 18.8737 19.375 19.332 19.6406C19.7904 19.901 20.3268 20.0312 20.9414 20.0312C21.3529 20.0312 21.7253 19.974 22.0586 19.8594C22.3919 19.7396 22.681 19.5651 22.9258 19.3359C23.1706 19.1068 23.3555 18.8229 23.4805 18.4844L26.1211 18.7812C25.9544 19.4792 25.6367 20.0885 25.168 20.6094C24.7044 21.125 24.1107 21.526 23.3867 21.8125C22.6628 22.0937 21.8346 22.2344 20.9023 22.2344ZM33.8652 22.2344C32.6673 22.2344 31.6387 21.9714 30.7793 21.4453C29.9251 20.9193 29.2663 20.1927 28.8027 19.2656C28.3444 18.3333 28.1152 17.2604 28.1152 16.0469C28.1152 14.8281 28.3496 13.7526 28.8184 12.8203C29.2871 11.8828 29.9486 11.1536 30.8027 10.6328C31.6621 10.1068 32.6777 9.84375 33.8496 9.84375C34.8236 9.84375 35.6855 10.0234 36.4355 10.3828C37.1908 10.737 37.7923 11.2396 38.2402 11.8906C38.6882 12.5365 38.9434 13.2917 39.0059 14.1562H36.3027C36.1934 13.5781 35.9329 13.0964 35.5215 12.7109C35.1152 12.3203 34.571 12.125 33.8887 12.125C33.3105 12.125 32.8027 12.2812 32.3652 12.5937C31.9277 12.901 31.5866 13.3437 31.3418 13.9219C31.1022 14.5 30.9824 15.1927 30.9824 16C30.9824 16.8177 31.1022 17.5208 31.3418 18.1094C31.5814 18.6927 31.9173 19.1432 32.3496 19.4609C32.7871 19.7734 33.3001 19.9297 33.8887 19.9297C34.3053 19.9297 34.6777 19.8516 35.0059 19.6953C35.3392 19.5339 35.6178 19.3021 35.8418 19C36.0658 18.6979 36.2194 18.3307 36.3027 17.8984H39.0059C38.9382 18.7474 38.6882 19.5 38.2559 20.1562C37.8236 20.8073 37.235 21.3177 36.4902 21.6875C35.7454 22.0521 34.8704 22.2344 33.8652 22.2344ZM46.6406 22.2344C45.4375 22.2344 44.3984 21.9844 43.5234 21.4844C42.6536 20.9792 41.9844 20.2656 41.5156 19.3437C41.0469 18.4167 40.8125 17.3255 40.8125 16.0703C40.8125 14.8359 41.0469 13.7526 41.5156 12.8203C41.9896 11.8828 42.651 11.1536 43.5 10.6328C44.349 10.1068 45.3464 9.84375 46.4922 9.84375C47.2318 9.84375 47.9297 9.96354 48.5859 10.2031C49.2474 10.4375 49.8307 10.8021 50.3359 11.2969C50.8464 11.7917 51.2474 12.4219 51.5391 13.1875C51.8307 13.9479 51.9766 14.8542 51.9766 15.9062V16.7734H42.1406V14.8672H49.2656C49.2604 14.3255 49.1432 13.8437 48.9141 13.4219C48.6849 12.9948 48.3646 12.6589 47.9531 12.4141C47.5469 12.1693 47.0729 12.0469 46.5312 12.0469C45.9531 12.0469 45.4453 12.1875 45.0078 12.4687C44.5703 12.7448 44.2292 13.1094 43.9844 13.5625C43.7448 14.0104 43.6224 14.5026 43.6172 15.0391V16.7031C43.6172 17.401 43.7448 18 44 18.5C44.2552 18.9948 44.612 19.375 45.0703 19.6406C45.5286 19.901 46.0651 20.0312 46.6797 20.0312C47.0911 20.0312 47.4635 19.974 47.7969 19.8594C48.1302 19.7396 48.4193 19.5651 48.6641 19.3359C48.9089 19.1068 49.0938 18.8229 49.2188 18.4844L51.8594 18.7812C51.6927 19.4792 51.375 20.0885 50.9063 20.6094C50.4427 21.125 49.849 21.526 49.125 21.8125C48.401 22.0937 47.5729 22.2344 46.6406 22.2344ZM57.1973 14.9687V22H54.3691V10H57.0723V12.0391H57.2129C57.4889 11.3672 57.929 10.8333 58.5332 10.4375C59.1426 10.0417 59.8952 9.84375 60.791 9.84375C61.6191 9.84375 62.3405 10.0208 62.9551 10.375C63.5749 10.7292 64.054 11.2422 64.3926 11.9141C64.7363 12.5859 64.9056 13.401 64.9004 14.3594V22H62.0723V14.7969C62.0723 13.9948 61.8639 13.3672 61.4473 12.9141C61.0358 12.4609 60.4655 12.2344 59.7363 12.2344C59.2415 12.2344 58.8014 12.3437 58.416 12.5625C58.0358 12.776 57.7363 13.0859 57.5176 13.4922C57.304 13.8984 57.1973 14.3906 57.1973 14.9687ZM73.7676 10V12.1875H66.8691V10H73.7676ZM68.5723 7.125H71.4004V18.3906C71.4004 18.7708 71.4577 19.0625 71.5723 19.2656C71.6921 19.4635 71.8483 19.599 72.041 19.6719C72.2337 19.7448 72.4473 19.7812 72.6816 19.7812C72.8587 19.7812 73.0202 19.7682 73.166 19.7422C73.3171 19.7161 73.4316 19.6927 73.5098 19.6719L73.9863 21.8828C73.8353 21.9349 73.6191 21.9922 73.3379 22.0547C73.0618 22.1172 72.7233 22.1536 72.3223 22.1641C71.6139 22.1849 70.9759 22.0781 70.4082 21.8437C69.8405 21.6042 69.39 21.2344 69.0566 20.7344C68.7285 20.2344 68.5671 19.6094 68.5723 18.8594V7.125ZM81.0117 8.42969V6H93.7773V8.42969H88.832V22H85.957V8.42969H81.0117ZM94.8672 22V10H97.6094V12H97.7344C97.9531 11.3073 98.3281 10.7734 98.8594 10.3984C99.3958 10.0182 100.008 9.82812 100.695 9.82812C100.852 9.82812 101.026 9.83594 101.219 9.85156C101.417 9.86198 101.581 9.88021 101.711 9.90625V12.5078C101.591 12.4661 101.401 12.4297 101.141 12.3984C100.885 12.362 100.638 12.3437 100.398 12.3437C99.8828 12.3437 99.4193 12.4557 99.0078 12.6797C98.6016 12.8984 98.2813 13.2031 98.0469 13.5937C97.8125 13.9844 97.6953 14.4349 97.6953 14.9453V22H94.8672ZM106.828 22.2422C106.068 22.2422 105.383 22.1068 104.773 21.8359C104.169 21.5599 103.69 21.1536 103.336 20.6172C102.987 20.0807 102.813 19.4193 102.813 18.6328C102.813 17.9557 102.938 17.3958 103.188 16.9531C103.438 16.5104 103.779 16.1562 104.211 15.8906C104.643 15.625 105.13 15.4245 105.672 15.2891C106.219 15.1484 106.784 15.0469 107.367 14.9844C108.07 14.9115 108.641 14.8464 109.078 14.7891C109.516 14.7266 109.833 14.6328 110.031 14.5078C110.234 14.3776 110.336 14.1771 110.336 13.9062V13.8594C110.336 13.2708 110.161 12.8151 109.813 12.4922C109.464 12.1693 108.961 12.0078 108.305 12.0078C107.612 12.0078 107.063 12.1589 106.656 12.4609C106.255 12.763 105.984 13.1198 105.844 13.5312L103.203 13.1562C103.411 12.4271 103.755 11.8177 104.234 11.3281C104.714 10.8333 105.299 10.4635 105.992 10.2187C106.685 9.96875 107.451 9.84375 108.289 9.84375C108.867 9.84375 109.443 9.91146 110.016 10.0469C110.589 10.1823 111.112 10.4062 111.586 10.7187C112.06 11.026 112.44 11.4453 112.727 11.9766C113.018 12.5078 113.164 13.1719 113.164 13.9687V22H110.445V20.3516H110.352C110.18 20.6849 109.938 20.9974 109.625 21.2891C109.318 21.5755 108.93 21.8073 108.461 21.9844C107.997 22.1563 107.453 22.2422 106.828 22.2422ZM107.563 20.1641C108.13 20.1641 108.622 20.0521 109.039 19.8281C109.456 19.599 109.776 19.2969 110 18.9219C110.229 18.5469 110.344 18.138 110.344 17.6953V16.2812C110.255 16.3542 110.104 16.4219 109.891 16.4844C109.682 16.5469 109.448 16.6016 109.188 16.6484C108.927 16.6953 108.669 16.737 108.414 16.7734C108.159 16.8099 107.938 16.8411 107.75 16.8672C107.328 16.9245 106.951 17.0182 106.617 17.1484C106.284 17.2786 106.021 17.4609 105.828 17.6953C105.635 17.9245 105.539 18.2214 105.539 18.5859C105.539 19.1068 105.729 19.5 106.109 19.7656C106.49 20.0312 106.974 20.1641 107.563 20.1641ZM118.836 14.9687V22H116.008V10H118.711V12.0391H118.852C119.128 11.3672 119.568 10.8333 120.172 10.4375C120.781 10.0417 121.534 9.84375 122.43 9.84375C123.258 9.84375 123.979 10.0208 124.594 10.375C125.214 10.7292 125.693 11.2422 126.031 11.9141C126.375 12.5859 126.544 13.401 126.539 14.3594V22H123.711V14.7969C123.711 13.9948 123.503 13.3672 123.086 12.9141C122.674 12.4609 122.104 12.2344 121.375 12.2344C120.88 12.2344 120.44 12.3437 120.055 12.5625C119.674 12.776 119.375 13.0859 119.156 13.4922C118.943 13.8984 118.836 14.3906 118.836 14.9687ZM138.898 13.1719L136.32 13.4531C136.247 13.1927 136.12 12.9479 135.938 12.7188C135.76 12.4896 135.521 12.3047 135.219 12.1641C134.917 12.0234 134.547 11.9531 134.109 11.9531C133.521 11.9531 133.026 12.0807 132.625 12.3359C132.229 12.5911 132.034 12.9219 132.039 13.3281C132.034 13.6771 132.161 13.9609 132.422 14.1797C132.688 14.3984 133.125 14.5781 133.734 14.7188L135.781 15.1562C136.917 15.401 137.76 15.7891 138.313 16.3203C138.87 16.8516 139.151 17.5469 139.156 18.4062C139.151 19.1615 138.93 19.8281 138.492 20.4062C138.06 20.9792 137.458 21.4271 136.688 21.75C135.917 22.0729 135.031 22.2344 134.031 22.2344C132.563 22.2344 131.38 21.9271 130.484 21.3125C129.589 20.6927 129.055 19.8307 128.883 18.7266L131.641 18.4609C131.766 19.0026 132.031 19.4115 132.438 19.6875C132.844 19.9635 133.372 20.1016 134.023 20.1016C134.695 20.1016 135.234 19.9635 135.641 19.6875C136.052 19.4115 136.258 19.0703 136.258 18.6641C136.258 18.3203 136.125 18.0365 135.859 17.8125C135.599 17.5885 135.193 17.4167 134.641 17.2969L132.594 16.8672C131.443 16.6276 130.591 16.224 130.039 15.6562C129.487 15.0833 129.214 14.3594 129.219 13.4844C129.214 12.7448 129.414 12.1042 129.82 11.5625C130.232 11.0156 130.802 10.5937 131.531 10.2969C132.266 9.99479 133.112 9.84375 134.07 9.84375C135.477 9.84375 136.583 10.1432 137.391 10.7422C138.203 11.3411 138.706 12.151 138.898 13.1719ZM144.941 22.2422C144.181 22.2422 143.496 22.1068 142.887 21.8359C142.283 21.5599 141.803 21.1536 141.449 20.6172C141.1 20.0807 140.926 19.4193 140.926 18.6328C140.926 17.9557 141.051 17.3958 141.301 16.9531C141.551 16.5104 141.892 16.1562 142.324 15.8906C142.757 15.625 143.243 15.4245 143.785 15.2891C144.332 15.1484 144.897 15.0469 145.48 14.9844C146.184 14.9115 146.754 14.8464 147.191 14.7891C147.629 14.7266 147.947 14.6328 148.145 14.5078C148.348 14.3776 148.449 14.1771 148.449 13.9062V13.8594C148.449 13.2708 148.275 12.8151 147.926 12.4922C147.577 12.1693 147.074 12.0078 146.418 12.0078C145.725 12.0078 145.176 12.1589 144.77 12.4609C144.368 12.763 144.098 13.1198 143.957 13.5312L141.316 13.1562C141.525 12.4271 141.868 11.8177 142.348 11.3281C142.827 10.8333 143.413 10.4635 144.105 10.2187C144.798 9.96875 145.564 9.84375 146.402 9.84375C146.98 9.84375 147.556 9.91146 148.129 10.0469C148.702 10.1823 149.225 10.4062 149.699 10.7187C150.173 11.026 150.553 11.4453 150.84 11.9766C151.132 12.5078 151.277 13.1719 151.277 13.9687V22H148.559V20.3516H148.465C148.293 20.6849 148.051 20.9974 147.738 21.2891C147.431 21.5755 147.043 21.8073 146.574 21.9844C146.111 22.1563 145.566 22.2422 144.941 22.2422ZM145.676 20.1641C146.243 20.1641 146.736 20.0521 147.152 19.8281C147.569 19.599 147.889 19.2969 148.113 18.9219C148.342 18.5469 148.457 18.138 148.457 17.6953V16.2812C148.368 16.3542 148.217 16.4219 148.004 16.4844C147.796 16.5469 147.561 16.6016 147.301 16.6484C147.04 16.6953 146.783 16.737 146.527 16.7734C146.272 16.8099 146.051 16.8411 145.863 16.8672C145.441 16.9245 145.064 17.0182 144.73 17.1484C144.397 17.2786 144.134 17.4609 143.941 17.6953C143.749 17.9245 143.652 18.2214 143.652 18.5859C143.652 19.1068 143.842 19.5 144.223 19.7656C144.603 20.0312 145.087 20.1641 145.676 20.1641ZM159.355 22.2344C158.158 22.2344 157.129 21.9714 156.27 21.4453C155.415 20.9193 154.757 20.1927 154.293 19.2656C153.835 18.3333 153.605 17.2604 153.605 16.0469C153.605 14.8281 153.84 13.7526 154.309 12.8203C154.777 11.8828 155.439 11.1536 156.293 10.6328C157.152 10.1068 158.168 9.84375 159.34 9.84375C160.314 9.84375 161.176 10.0234 161.926 10.3828C162.681 10.737 163.283 11.2396 163.73 11.8906C164.178 12.5365 164.434 13.2917 164.496 14.1562H161.793C161.684 13.5781 161.423 13.0964 161.012 12.7109C160.605 12.3203 160.061 12.125 159.379 12.125C158.801 12.125 158.293 12.2812 157.855 12.5937C157.418 12.901 157.077 13.3437 156.832 13.9219C156.592 14.5 156.473 15.1927 156.473 16C156.473 16.8177 156.592 17.5208 156.832 18.1094C157.072 18.6927 157.408 19.1432 157.84 19.4609C158.277 19.7734 158.79 19.9297 159.379 19.9297C159.796 19.9297 160.168 19.8516 160.496 19.6953C160.829 19.5339 161.108 19.3021 161.332 19C161.556 18.6979 161.71 18.3307 161.793 17.8984H164.496C164.428 18.7474 164.178 19.5 163.746 20.1562C163.314 20.8073 162.725 21.3177 161.98 21.6875C161.236 22.0521 160.361 22.2344 159.355 22.2344ZM172.811 10V12.1875H165.912V10H172.811ZM167.615 7.125H170.443V18.3906C170.443 18.7708 170.501 19.0625 170.615 19.2656C170.735 19.4635 170.891 19.599 171.084 19.6719C171.277 19.7448 171.49 19.7812 171.725 19.7812C171.902 19.7812 172.063 19.7682 172.209 19.7422C172.36 19.7161 172.475 19.6927 172.553 19.6719L173.029 21.8828C172.878 21.9349 172.662 21.9922 172.381 22.0547C172.105 22.1172 171.766 22.1536 171.365 22.1641C170.657 22.1849 170.019 22.0781 169.451 21.8437C168.883 21.6042 168.433 21.2344 168.1 20.7344C167.771 20.2344 167.61 19.6094 167.615 18.8594V7.125ZM175.176 22V10H178.004V22H175.176ZM176.598 8.29688C176.15 8.29688 175.764 8.14844 175.441 7.85156C175.118 7.54948 174.957 7.1875 174.957 6.76562C174.957 6.33854 175.118 5.97656 175.441 5.67969C175.764 5.3776 176.15 5.22656 176.598 5.22656C177.051 5.22656 177.436 5.3776 177.754 5.67969C178.077 5.97656 178.238 6.33854 178.238 6.76562C178.238 7.1875 178.077 7.54948 177.754 7.85156C177.436 8.14844 177.051 8.29688 176.598 8.29688ZM186.146 22.2344C184.975 22.2344 183.959 21.9766 183.1 21.4609C182.24 20.9453 181.574 20.224 181.1 19.2969C180.631 18.3698 180.396 17.2865 180.396 16.0469C180.396 14.8073 180.631 13.7214 181.1 12.7891C181.574 11.8568 182.24 11.1328 183.1 10.6172C183.959 10.1016 184.975 9.84375 186.146 9.84375C187.318 9.84375 188.334 10.1016 189.193 10.6172C190.053 11.1328 190.717 11.8568 191.186 12.7891C191.66 13.7214 191.896 14.8073 191.896 16.0469C191.896 17.2865 191.66 18.3698 191.186 19.2969C190.717 20.224 190.053 20.9453 189.193 21.4609C188.334 21.9766 187.318 22.2344 186.146 22.2344ZM186.162 19.9687C186.798 19.9687 187.329 19.7943 187.756 19.4453C188.183 19.0911 188.501 18.6172 188.709 18.0234C188.923 17.4297 189.029 16.7682 189.029 16.0391C189.029 15.3047 188.923 14.6406 188.709 14.0469C188.501 13.4479 188.183 12.9714 187.756 12.6172C187.329 12.263 186.798 12.0859 186.162 12.0859C185.511 12.0859 184.969 12.263 184.537 12.6172C184.11 12.9714 183.79 13.4479 183.576 14.0469C183.368 14.6406 183.264 15.3047 183.264 16.0391C183.264 16.7682 183.368 17.4297 183.576 18.0234C183.79 18.6172 184.11 19.0911 184.537 19.4453C184.969 19.7943 185.511 19.9687 186.162 19.9687ZM197.125 14.9687V22H194.297V10H197V12.0391H197.141C197.417 11.3672 197.857 10.8333 198.461 10.4375C199.07 10.0417 199.823 9.84375 200.719 9.84375C201.547 9.84375 202.268 10.0208 202.883 10.375C203.503 10.7292 203.982 11.2422 204.32 11.9141C204.664 12.5859 204.833 13.401 204.828 14.3594V22H202V14.7969C202 13.9948 201.792 13.3672 201.375 12.9141C200.964 12.4609 200.393 12.2344 199.664 12.2344C199.169 12.2344 198.729 12.3437 198.344 12.5625C197.964 12.776 197.664 13.0859 197.445 13.4922C197.232 13.8984 197.125 14.3906 197.125 14.9687Z" fill="#343C6A"/>
<rect y="47" width="350" height="235" rx="25" fill="white"/>
<path d="M102.045 158C105.591 158 107.642 155.801 107.642 152.165C107.642 148.545 105.591 146.364 102.165 146.364H98.2784V158H102.045ZM100.034 156.466V147.898H102.057C104.602 147.898 105.915 149.42 105.915 152.165C105.915 154.92 104.602 156.466 101.949 156.466H100.034ZM113.45 158.176C115.354 158.176 116.7 157.239 117.087 155.818L115.479 155.528C115.172 156.352 114.433 156.773 113.467 156.773C112.013 156.773 111.036 155.83 110.99 154.148H117.195V153.545C117.195 150.392 115.308 149.159 113.331 149.159C110.899 149.159 109.297 151.011 109.297 153.693C109.297 156.403 110.876 158.176 113.45 158.176ZM110.996 152.875C111.064 151.636 111.962 150.562 113.342 150.562C114.661 150.562 115.524 151.54 115.53 152.875H110.996ZM119.08 161.273H120.778V156.642H120.881C121.188 157.199 121.812 158.17 123.403 158.17C125.517 158.17 127.051 156.477 127.051 153.653C127.051 150.824 125.494 149.159 123.386 149.159C121.767 149.159 121.182 150.148 120.881 150.688H120.739V149.273H119.08V161.273ZM120.744 153.636C120.744 151.812 121.54 150.602 123.023 150.602C124.562 150.602 125.335 151.903 125.335 153.636C125.335 155.386 124.54 156.722 123.023 156.722C121.562 156.722 120.744 155.472 120.744 153.636ZM132.631 158.176C135.091 158.176 136.699 156.375 136.699 153.676C136.699 150.96 135.091 149.159 132.631 149.159C130.17 149.159 128.562 150.96 128.562 153.676C128.562 156.375 130.17 158.176 132.631 158.176ZM132.636 156.75C131.028 156.75 130.278 155.347 130.278 153.67C130.278 152 131.028 150.58 132.636 150.58C134.233 150.58 134.983 152 134.983 153.67C134.983 155.347 134.233 156.75 132.636 156.75ZM145.135 151.403C144.783 150.045 143.72 149.159 141.834 149.159C139.862 149.159 138.464 150.199 138.464 151.744C138.464 152.983 139.214 153.807 140.851 154.17L142.328 154.494C143.169 154.682 143.561 155.057 143.561 155.602C143.561 156.278 142.839 156.807 141.726 156.807C140.709 156.807 140.055 156.369 139.851 155.511L138.209 155.761C138.493 157.307 139.777 158.176 141.737 158.176C143.845 158.176 145.305 157.057 145.305 155.477C145.305 154.244 144.521 153.483 142.919 153.114L141.533 152.795C140.572 152.568 140.158 152.244 140.163 151.653C140.158 150.983 140.885 150.506 141.851 150.506C142.908 150.506 143.396 151.091 143.595 151.676L145.135 151.403ZM147.173 158H148.872V149.273H147.173V158ZM148.031 147.926C148.616 147.926 149.105 147.472 149.105 146.915C149.105 146.358 148.616 145.898 148.031 145.898C147.44 145.898 146.957 146.358 146.957 146.915C146.957 147.472 147.44 147.926 148.031 147.926ZM155.232 149.273H153.442V147.182H151.743V149.273H150.464V150.636H151.743V155.79C151.737 157.375 152.947 158.142 154.288 158.114C154.828 158.108 155.192 158.006 155.391 157.932L155.084 156.528C154.97 156.551 154.76 156.602 154.487 156.602C153.936 156.602 153.442 156.42 153.442 155.438V150.636H155.232V149.273ZM161.482 158H163.237V153.909H165.624C168.322 153.909 169.658 152.278 169.658 150.131C169.658 147.989 168.334 146.364 165.629 146.364H161.482V158ZM163.237 152.42V147.869H165.442C167.18 147.869 167.891 148.812 167.891 150.131C167.891 151.449 167.18 152.42 165.464 152.42H163.237ZM174.041 158.193C175.484 158.193 176.297 157.46 176.621 156.807H176.689V158H178.348V152.205C178.348 149.665 176.348 149.159 174.962 149.159C173.382 149.159 171.928 149.795 171.359 151.386L172.956 151.75C173.206 151.131 173.842 150.534 174.984 150.534C176.081 150.534 176.643 151.108 176.643 152.097V152.136C176.643 152.756 176.007 152.744 174.439 152.926C172.786 153.119 171.092 153.551 171.092 155.534C171.092 157.25 172.382 158.193 174.041 158.193ZM174.411 156.83C173.45 156.83 172.757 156.398 172.757 155.557C172.757 154.648 173.564 154.324 174.547 154.193C175.098 154.119 176.405 153.972 176.649 153.727V154.852C176.649 155.886 175.825 156.83 174.411 156.83ZM181.372 161.273C182.776 161.273 183.662 160.54 184.168 159.165L187.776 149.29L185.94 149.273L183.73 156.045H183.639L181.429 149.273H179.611L182.804 158.114L182.594 158.693C182.162 159.852 181.554 159.949 180.622 159.693L180.213 161.085C180.418 161.176 180.861 161.273 181.372 161.273ZM189.376 161.273H191.075V156.642H191.178C191.484 157.199 192.109 158.17 193.7 158.17C195.814 158.17 197.348 156.477 197.348 153.653C197.348 150.824 195.791 149.159 193.683 149.159C192.064 149.159 191.479 150.148 191.178 150.688H191.036V149.273H189.376V161.273ZM191.041 153.636C191.041 151.812 191.837 150.602 193.32 150.602C194.859 150.602 195.632 151.903 195.632 153.636C195.632 155.386 194.837 156.722 193.32 156.722C191.859 156.722 191.041 155.472 191.041 153.636ZM201.791 158.193C203.234 158.193 204.047 157.46 204.371 156.807H204.439V158H206.098V152.205C206.098 149.665 204.098 149.159 202.712 149.159C201.132 149.159 199.678 149.795 199.109 151.386L200.706 151.75C200.956 151.131 201.592 150.534 202.734 150.534C203.831 150.534 204.393 151.108 204.393 152.097V152.136C204.393 152.756 203.757 152.744 202.189 152.926C200.536 153.119 198.842 153.551 198.842 155.534C198.842 157.25 200.132 158.193 201.791 158.193ZM202.161 156.83C201.2 156.83 200.507 156.398 200.507 155.557C200.507 154.648 201.314 154.324 202.297 154.193C202.848 154.119 204.155 153.972 204.399 153.727V154.852C204.399 155.886 203.575 156.83 202.161 156.83ZM210.06 146.364H208.361V158H210.06V146.364Z" fill="#232323"/>
<path d="M98.1293 183H105.011V181.828H99.9403V181.743L102.391 179.122C104.266 177.114 104.82 176.176 104.82 174.967C104.82 173.284 103.456 171.942 101.538 171.942C99.6261 171.942 98.1719 173.241 98.1719 175.159H99.429C99.429 173.918 100.233 173.092 101.496 173.092C102.678 173.092 103.584 173.817 103.584 174.967C103.584 175.974 102.993 176.72 101.73 178.099L98.1293 182.041V183ZM110.62 183.149C112.698 183.149 114.221 181.615 114.221 179.527C114.221 177.412 112.751 175.862 110.748 175.862C110.013 175.862 109.299 176.123 108.852 176.48H108.788L109.172 173.263H113.731V172.091H108.064L107.403 177.46L108.639 177.609C109.092 177.284 109.864 177.05 110.535 177.055C111.925 177.066 112.943 178.121 112.943 179.548C112.943 180.949 111.963 181.977 110.62 181.977C109.502 181.977 108.612 181.258 108.511 180.273H107.233C107.312 181.935 108.745 183.149 110.62 183.149ZM124.924 172.091V179.889C124.924 181.248 124.274 181.977 123.134 181.977C122.095 181.977 121.344 181.37 121.344 180.443H120.045C120.045 182.121 121.344 183.149 123.134 183.149C125.03 183.149 126.245 181.983 126.245 179.889V172.091H124.924ZM131.13 183.192C132.557 183.192 133.303 182.425 133.559 181.892H133.622V183H134.88V177.609C134.88 175.01 132.898 174.712 131.854 174.712C130.618 174.712 129.212 175.138 128.573 176.629L129.766 177.055C130.043 176.459 130.698 175.82 131.897 175.82C133.052 175.82 133.622 176.432 133.622 177.482V177.524C133.622 178.131 133.005 178.078 131.513 178.27C129.995 178.467 128.338 178.803 128.338 180.678C128.338 182.276 129.574 183.192 131.13 183.192ZM131.321 182.062C130.32 182.062 129.595 181.615 129.595 180.741C129.595 179.783 130.469 179.484 131.449 179.357C131.982 179.293 133.409 179.143 133.622 178.888V180.038C133.622 181.061 132.813 182.062 131.321 182.062ZM138.431 178.078C138.431 176.651 139.315 175.841 140.519 175.841C141.686 175.841 142.394 176.603 142.394 177.886V183H143.651V177.801C143.651 175.713 142.538 174.712 140.881 174.712C139.646 174.712 138.879 175.266 138.495 176.097H138.388V174.818H137.174V183H138.431V178.078ZM151.105 179.655C151.105 181.189 149.933 181.892 148.995 181.892C147.951 181.892 147.206 181.125 147.206 179.932V174.818H145.948V180.017C145.948 182.105 147.056 183.107 148.59 183.107C149.826 183.107 150.636 182.446 151.019 181.615H151.105V183H152.362V174.818H151.105V179.655ZM157.072 183.192C158.499 183.192 159.245 182.425 159.501 181.892H159.565V183H160.822V177.609C160.822 175.01 158.84 174.712 157.796 174.712C156.561 174.712 155.154 175.138 154.515 176.629L155.708 177.055C155.985 176.459 156.64 175.82 157.839 175.82C158.995 175.82 159.565 176.432 159.565 177.482V177.524C159.565 178.131 158.947 178.078 157.455 178.27C155.937 178.467 154.281 178.803 154.281 180.678C154.281 182.276 155.517 183.192 157.072 183.192ZM157.264 182.062C156.262 182.062 155.538 181.615 155.538 180.741C155.538 179.783 156.411 179.484 157.392 179.357C157.924 179.293 159.352 179.143 159.565 178.888V180.038C159.565 181.061 158.755 182.062 157.264 182.062ZM163.116 183H164.373V177.822C164.373 176.714 165.247 175.905 166.44 175.905C166.776 175.905 167.122 175.969 167.207 175.99V174.712C167.063 174.701 166.733 174.69 166.547 174.69C165.567 174.69 164.714 175.244 164.416 176.054H164.331V174.818H163.116V183ZM169.756 186.068C170.891 186.068 171.69 185.466 172.164 184.193L175.647 174.839L174.273 174.818L172.015 181.338H171.929L169.671 174.818H168.307L171.333 183.043L171.098 183.682C170.64 184.928 170.076 185.045 169.16 184.811L168.84 185.919C168.968 185.983 169.33 186.068 169.756 186.068ZM181.508 183H188.39V181.828H183.319V181.743L185.77 179.122C187.645 177.114 188.199 176.176 188.199 174.967C188.199 173.284 186.835 171.942 184.917 171.942C183.005 171.942 181.551 173.241 181.551 175.159H182.808C182.808 173.918 183.612 173.092 184.875 173.092C186.057 173.092 186.963 173.817 186.963 174.967C186.963 175.974 186.371 176.72 185.109 178.099L181.508 182.041V183ZM194.148 183.149C196.556 183.149 197.941 181.109 197.941 177.545C197.941 174.009 196.535 171.942 194.148 171.942C191.762 171.942 190.356 174.009 190.356 177.545C190.356 181.109 191.741 183.149 194.148 183.149ZM194.148 181.977C192.561 181.977 191.634 180.385 191.634 177.545C191.634 174.712 192.572 173.092 194.148 173.092C195.725 173.092 196.663 174.712 196.663 177.545C196.663 180.385 195.736 181.977 194.148 181.977ZM199.965 183H206.847V181.828H201.776V181.743L204.227 179.122C206.102 177.114 206.656 176.176 206.656 174.967C206.656 173.284 205.292 171.942 203.374 171.942C201.462 171.942 200.008 173.241 200.008 175.159H201.265C201.265 173.918 202.069 173.092 203.332 173.092C204.514 173.092 205.42 173.817 205.42 174.967C205.42 175.974 204.828 176.72 203.566 178.099L199.965 182.041V183ZM212.882 172.091H211.561L208.834 173.902V175.244L211.498 173.476H211.561V183H212.882V172.091Z" fill="#718EBF"/>
<path d="M264.797 168.045H266.325V164.966H269.405V163.438H266.325V160.364H264.797V163.438H261.723V164.966H264.797V168.045ZM275.516 171.455H276.584L276.589 170.176C278.993 170 280.368 168.625 280.368 166.784C280.368 164.688 278.499 163.875 277.021 163.511L276.607 163.403L276.618 159.756C277.68 159.898 278.408 160.489 278.516 161.42H280.209C280.163 159.688 278.732 158.392 276.624 158.222L276.629 156.909H275.561L275.555 158.233C273.516 158.438 272.021 159.71 272.021 161.545C272.021 163.165 273.18 164.114 275.05 164.619L275.538 164.75L275.527 168.619C274.419 168.483 273.561 167.881 273.47 166.784H271.709C271.817 168.744 273.232 170.006 275.521 170.176L275.516 171.455ZM276.595 168.619L276.607 165.045C277.76 165.364 278.629 165.784 278.629 166.767C278.629 167.761 277.8 168.46 276.595 168.619ZM275.544 163.119C274.697 162.869 273.766 162.42 273.771 161.443C273.771 160.591 274.447 159.926 275.55 159.761L275.544 163.119ZM282.307 170H289.966V168.494H284.727V168.409L287.04 165.989C289.17 163.835 289.778 162.807 289.778 161.506C289.778 159.636 288.256 158.205 286.062 158.205C283.886 158.205 282.295 159.614 282.295 161.739H283.972C283.966 160.489 284.773 159.67 286.028 159.67C287.21 159.67 288.108 160.398 288.108 161.557C288.108 162.585 287.494 163.324 286.244 164.648L282.307 168.727V170ZM294.352 168.409H292.716L292.659 169.045C292.528 170.585 292.165 172.136 292.011 172.841H293.216C293.489 172.097 294.091 170.392 294.267 169.028L294.352 168.409ZM300.382 170.159C302.723 170.159 304.393 168.506 304.388 166.239C304.393 163.989 302.825 162.352 300.706 162.352C299.842 162.352 299.041 162.682 298.587 163.125H298.518L298.888 159.869H303.825V158.364H297.428L296.774 164.227L298.382 164.466C298.82 164.074 299.604 163.807 300.308 163.807C301.689 163.818 302.689 164.852 302.689 166.273C302.689 167.67 301.717 168.682 300.382 168.682C299.257 168.682 298.365 167.966 298.274 166.966H296.57C296.638 168.818 298.246 170.159 300.382 170.159ZM310.514 170.193C313.202 170.193 314.776 168 314.776 164.188C314.776 160.403 313.179 158.205 310.514 158.205C307.844 158.205 306.253 160.398 306.247 164.188C306.247 167.994 307.821 170.188 310.514 170.193ZM310.514 168.676C308.94 168.676 307.991 167.097 307.991 164.188C307.997 161.29 308.946 159.693 310.514 159.693C312.077 159.693 313.031 161.29 313.031 164.188C313.031 167.097 312.082 168.676 310.514 168.676ZM320.842 170.193C323.53 170.193 325.104 168 325.104 164.188C325.104 160.403 323.507 158.205 320.842 158.205C318.172 158.205 316.581 160.398 316.575 164.188C316.575 167.994 318.149 170.188 320.842 170.193ZM320.842 168.676C319.268 168.676 318.32 167.097 318.32 164.188C318.325 161.29 319.274 159.693 320.842 159.693C322.405 159.693 323.359 161.29 323.359 164.188C323.359 167.097 322.411 168.676 320.842 168.676Z" fill="#41D4A8"/>
<circle cx="52.5" cy="164.5" r="27.5" fill="#E7EDFF"/>
<path d="M61.995 159.383C61.9812 157.852 61.3641 156.389 60.2779 155.311C59.1917 154.233 57.7241 153.627 56.1937 153.625H47.75C47.5402 153.622 47.3365 153.695 47.1759 153.83C47.0153 153.965 46.9085 154.153 46.875 154.36L43.8825 173.129C43.8638 173.253 43.8721 173.38 43.9068 173.501C43.9415 173.621 44.0019 173.733 44.0837 173.829C44.1651 173.926 44.2667 174.005 44.3815 174.06C44.4963 174.114 44.6217 174.143 44.7487 174.144H48.3625L48.17 175.36C48.1495 175.486 48.1569 175.615 48.1917 175.738C48.2264 175.861 48.2876 175.975 48.371 176.071C48.4543 176.168 48.5579 176.245 48.6743 176.298C48.7908 176.35 48.9173 176.377 49.045 176.375H53.1137C53.3222 176.378 53.5249 176.307 53.6853 176.173C53.8457 176.04 53.9533 175.854 53.9887 175.649L54.8637 170.303H57.62C59.3451 170.296 60.9974 169.606 62.2156 168.384C63.4338 167.163 64.1189 165.509 64.1212 163.784V163.539C64.1203 162.727 63.9272 161.928 63.5576 161.205C63.188 160.483 62.6525 159.858 61.995 159.383ZM48.4937 155.375H56.1937C57.1117 155.378 58.0017 155.692 58.7184 156.265C59.4351 156.839 59.9362 157.639 60.14 158.534C59.7614 158.445 59.3738 158.401 58.985 158.403H51.6875C51.4777 158.4 51.274 158.473 51.1134 158.607C50.9528 158.742 50.846 158.93 50.8125 159.138L50.2962 162.375C50.2591 162.607 50.3157 162.844 50.4535 163.035C50.5914 163.225 50.7992 163.353 51.0312 163.39C51.2633 163.427 51.5006 163.371 51.691 163.233C51.8813 163.095 52.0091 162.887 52.0462 162.655L52.4487 160.135H59.0025C59.4219 160.137 59.8373 160.217 60.2275 160.371C60.0611 161.741 59.4003 163.003 58.3691 163.92C57.3378 164.837 56.0073 165.345 54.6275 165.35H50.5675C50.359 165.347 50.1563 165.418 49.9959 165.552C49.8355 165.685 49.7279 165.871 49.6925 166.076L48.625 172.394H45.7725L48.4937 155.375ZM62.3712 163.784C62.3689 165.045 61.8682 166.254 60.9781 167.147C60.0881 168.04 58.881 168.546 57.62 168.553H54.12C53.9115 168.549 53.7088 168.621 53.5484 168.754C53.388 168.887 53.2804 169.073 53.245 169.279L52.37 174.625H50.06L50.2525 173.409L51.3025 167.118H54.61C56.2435 167.113 57.8295 166.568 59.121 165.567C60.4124 164.567 61.3368 163.168 61.75 161.588C62.1561 162.157 62.3734 162.839 62.3712 163.539V163.784Z" fill="#396AFF"/>
<path d="M102.045 93C105.591 93 107.642 90.8011 107.642 87.1648C107.642 83.5455 105.591 81.3636 102.165 81.3636H98.2784V93H102.045ZM100.034 91.4659V82.8977H102.057C104.602 82.8977 105.915 84.4205 105.915 87.1648C105.915 89.9205 104.602 91.4659 101.949 91.4659H100.034ZM113.45 93.1761C115.354 93.1761 116.7 92.2386 117.087 90.8182L115.479 90.5284C115.172 91.3523 114.433 91.7727 113.467 91.7727C112.013 91.7727 111.036 90.8295 110.99 89.1477H117.195V88.5455C117.195 85.392 115.308 84.1591 113.331 84.1591C110.899 84.1591 109.297 86.0114 109.297 88.6932C109.297 91.4034 110.876 93.1761 113.45 93.1761ZM110.996 87.875C111.064 86.6364 111.962 85.5625 113.342 85.5625C114.661 85.5625 115.524 86.5398 115.53 87.875H110.996ZM119.08 96.2727H120.778V91.642H120.881C121.188 92.1989 121.812 93.1705 123.403 93.1705C125.517 93.1705 127.051 91.4773 127.051 88.6534C127.051 85.8239 125.494 84.1591 123.386 84.1591C121.767 84.1591 121.182 85.1477 120.881 85.6875H120.739V84.2727H119.08V96.2727ZM120.744 88.6364C120.744 86.8125 121.54 85.6023 123.023 85.6023C124.562 85.6023 125.335 86.9034 125.335 88.6364C125.335 90.3864 124.54 91.7216 123.023 91.7216C121.562 91.7216 120.744 90.4716 120.744 88.6364ZM132.631 93.1761C135.091 93.1761 136.699 91.375 136.699 88.6761C136.699 85.9602 135.091 84.1591 132.631 84.1591C130.17 84.1591 128.562 85.9602 128.562 88.6761C128.562 91.375 130.17 93.1761 132.631 93.1761ZM132.636 91.75C131.028 91.75 130.278 90.3466 130.278 88.6705C130.278 87 131.028 85.5795 132.636 85.5795C134.233 85.5795 134.983 87 134.983 88.6705C134.983 90.3466 134.233 91.75 132.636 91.75ZM145.135 86.4034C144.783 85.0455 143.72 84.1591 141.834 84.1591C139.862 84.1591 138.464 85.1989 138.464 86.7443C138.464 87.983 139.214 88.8068 140.851 89.1705L142.328 89.4943C143.169 89.6818 143.561 90.0568 143.561 90.6023C143.561 91.2784 142.839 91.8068 141.726 91.8068C140.709 91.8068 140.055 91.3693 139.851 90.5114L138.209 90.7614C138.493 92.3068 139.777 93.1761 141.737 93.1761C143.845 93.1761 145.305 92.0568 145.305 90.4773C145.305 89.2443 144.521 88.483 142.919 88.1136L141.533 87.7955C140.572 87.5682 140.158 87.2443 140.163 86.6534C140.158 85.983 140.885 85.5057 141.851 85.5057C142.908 85.5057 143.396 86.0909 143.595 86.6761L145.135 86.4034ZM147.173 93H148.872V84.2727H147.173V93ZM148.031 82.9261C148.616 82.9261 149.105 82.4716 149.105 81.9148C149.105 81.358 148.616 80.8977 148.031 80.8977C147.44 80.8977 146.957 81.358 146.957 81.9148C146.957 82.4716 147.44 82.9261 148.031 82.9261ZM155.232 84.2727H153.442V82.1818H151.743V84.2727H150.464V85.6364H151.743V90.7898C151.737 92.375 152.947 93.142 154.288 93.1136C154.828 93.108 155.192 93.0057 155.391 92.9318L155.084 91.5284C154.97 91.5511 154.76 91.6023 154.487 91.6023C153.936 91.6023 153.442 91.4205 153.442 90.4375V85.6364H155.232V84.2727ZM165.499 84.2727H163.618V83.4886C163.618 82.7159 163.936 82.2955 164.766 82.2955C165.118 82.2955 165.368 82.375 165.527 82.4261L165.925 81.0511C165.686 80.9602 165.192 80.8182 164.504 80.8182C163.124 80.8182 161.913 81.625 161.913 83.2614V84.2727H160.567V85.6364H161.913V93H163.618V85.6364H165.499V84.2727ZM167.251 93H168.95V87.6705C168.95 86.5284 169.831 85.7045 171.036 85.7045C171.388 85.7045 171.786 85.767 171.922 85.8068V84.1818C171.751 84.1591 171.416 84.142 171.2 84.142C170.178 84.142 169.303 84.7216 168.984 85.6591H168.893V84.2727H167.251V93ZM176.756 93.1761C179.216 93.1761 180.824 91.375 180.824 88.6761C180.824 85.9602 179.216 84.1591 176.756 84.1591C174.295 84.1591 172.688 85.9602 172.688 88.6761C172.688 91.375 174.295 93.1761 176.756 93.1761ZM176.761 91.75C175.153 91.75 174.403 90.3466 174.403 88.6705C174.403 87 175.153 85.5795 176.761 85.5795C178.358 85.5795 179.108 87 179.108 88.6705C179.108 90.3466 178.358 91.75 176.761 91.75ZM182.72 93H184.419V87.6193C184.419 86.4432 185.243 85.625 186.209 85.625C187.152 85.625 187.805 86.25 187.805 87.1989V93H189.499V87.4375C189.499 86.3864 190.141 85.625 191.249 85.625C192.146 85.625 192.885 86.125 192.885 87.3068V93H194.584V87.1477C194.584 85.1534 193.47 84.1591 191.891 84.1591C190.635 84.1591 189.692 84.7614 189.271 85.6932H189.18C188.8 84.7386 187.999 84.1591 186.834 84.1591C185.68 84.1591 184.822 84.733 184.459 85.6932H184.351V84.2727H182.72V93ZM201.095 93H202.794V87.6193C202.794 86.4432 203.618 85.625 204.584 85.625C205.527 85.625 206.18 86.25 206.18 87.1989V93H207.874V87.4375C207.874 86.3864 208.516 85.625 209.624 85.625C210.521 85.625 211.26 86.125 211.26 87.3068V93H212.959V87.1477C212.959 85.1534 211.845 84.1591 210.266 84.1591C209.01 84.1591 208.067 84.7614 207.646 85.6932H207.555C207.175 84.7386 206.374 84.1591 205.209 84.1591C204.055 84.1591 203.197 84.733 202.834 85.6932H202.726V84.2727H201.095V93ZM215.997 96.2727C217.401 96.2727 218.287 95.5398 218.793 94.1648L222.401 84.2898L220.565 84.2727L218.355 91.0455H218.264L216.054 84.2727H214.236L217.429 93.1136L217.219 93.6932C216.787 94.8523 216.179 94.9489 215.247 94.6932L214.838 96.0852C215.043 96.1761 215.486 96.2727 215.997 96.2727ZM238.037 85.1477C237.639 82.6591 235.69 81.2045 233.23 81.2045C230.219 81.2045 227.997 83.4602 227.997 87.1818C227.997 90.9034 230.207 93.1591 233.23 93.1591C235.787 93.1591 237.656 91.5568 238.037 89.2557L236.264 89.25C235.963 90.7386 234.713 91.5568 233.241 91.5568C231.247 91.5568 229.741 90.0284 229.741 87.1818C229.741 84.358 231.241 82.8068 233.247 82.8068C234.73 82.8068 235.974 83.642 236.264 85.1477H238.037ZM242.541 93.1932C243.984 93.1932 244.797 92.4602 245.121 91.8068H245.189V93H246.848V87.2045C246.848 84.6648 244.848 84.1591 243.462 84.1591C241.882 84.1591 240.428 84.7955 239.859 86.3864L241.456 86.75C241.706 86.1307 242.342 85.5341 243.484 85.5341C244.581 85.5341 245.143 86.108 245.143 87.0966V87.1364C245.143 87.7557 244.507 87.7443 242.939 87.9261C241.286 88.1193 239.592 88.5511 239.592 90.5341C239.592 92.25 240.882 93.1932 242.541 93.1932ZM242.911 91.8295C241.95 91.8295 241.257 91.3977 241.257 90.5568C241.257 89.6477 242.064 89.3239 243.047 89.1932C243.598 89.1193 244.905 88.9716 245.149 88.7273V89.8523C245.149 90.8864 244.325 91.8295 242.911 91.8295ZM249.111 93H250.81V87.6705C250.81 86.5284 251.69 85.7045 252.895 85.7045C253.247 85.7045 253.645 85.767 253.781 85.8068V84.1818C253.611 84.1591 253.276 84.142 253.06 84.142C252.037 84.142 251.162 84.7216 250.844 85.6591H250.753V84.2727H249.111V93ZM258.206 93.1705C259.797 93.1705 260.422 92.1989 260.729 91.642H260.871V93H262.53V81.3636H260.831V85.6875H260.729C260.422 85.1477 259.842 84.1591 258.217 84.1591C256.109 84.1591 254.558 85.8239 254.558 88.6534C254.558 91.4773 256.087 93.1705 258.206 93.1705ZM258.581 91.7216C257.064 91.7216 256.274 90.3864 256.274 88.6364C256.274 86.9034 257.047 85.6023 258.581 85.6023C260.064 85.6023 260.859 86.8125 260.859 88.6364C260.859 90.4716 260.047 91.7216 258.581 91.7216Z" fill="#232323"/>
<path d="M98.1293 118H105.011V116.828H99.9403V116.743L102.391 114.122C104.266 112.114 104.82 111.176 104.82 109.967C104.82 108.284 103.456 106.942 101.538 106.942C99.6261 106.942 98.1719 108.241 98.1719 110.159H99.429C99.429 108.918 100.233 108.092 101.496 108.092C102.678 108.092 103.584 108.817 103.584 109.967C103.584 110.974 102.993 111.72 101.73 113.099L98.1293 117.041V118ZM110.706 118.149C112.884 118.149 114.402 116.876 114.413 115.102C114.402 113.723 113.481 112.551 112.304 112.332V112.268C113.326 112.002 113.998 111.001 114.008 109.839C113.998 108.178 112.602 106.942 110.706 106.942C108.788 106.942 107.392 108.178 107.403 109.839C107.392 111.001 108.064 112.002 109.108 112.268V112.332C107.909 112.551 106.988 113.723 106.998 115.102C106.988 116.876 108.506 118.149 110.706 118.149ZM110.706 116.977C109.209 116.977 108.287 116.21 108.298 115.038C108.287 113.808 109.305 112.929 110.706 112.929C112.085 112.929 113.103 113.808 113.113 115.038C113.103 116.21 112.181 116.977 110.706 116.977ZM110.706 111.8C109.512 111.8 108.671 111.054 108.681 109.925C108.671 108.817 109.48 108.092 110.706 108.092C111.909 108.092 112.719 108.817 112.73 109.925C112.719 111.054 111.877 111.8 110.706 111.8ZM125.041 107.091V114.889C125.041 116.248 124.391 116.977 123.251 116.977C122.213 116.977 121.462 116.37 121.462 115.443H120.162C120.162 117.121 121.462 118.149 123.251 118.149C125.148 118.149 126.362 116.983 126.362 114.889V107.091H125.041ZM131.247 118.192C132.674 118.192 133.42 117.425 133.676 116.892H133.74V118H134.997V112.609C134.997 110.01 133.015 109.712 131.971 109.712C130.735 109.712 129.329 110.138 128.69 111.629L129.883 112.055C130.16 111.459 130.815 110.82 132.014 110.82C133.17 110.82 133.74 111.432 133.74 112.482V112.524C133.74 113.131 133.122 113.078 131.63 113.27C130.112 113.467 128.456 113.803 128.456 115.678C128.456 117.276 129.691 118.192 131.247 118.192ZM131.438 117.062C130.437 117.062 129.713 116.615 129.713 115.741C129.713 114.783 130.586 114.484 131.566 114.357C132.099 114.293 133.527 114.143 133.74 113.888V115.038C133.74 116.061 132.93 117.062 131.438 117.062ZM138.548 113.078C138.548 111.651 139.433 110.841 140.636 110.841C141.803 110.841 142.511 111.603 142.511 112.886V118H143.768V112.801C143.768 110.713 142.655 109.712 140.999 109.712C139.763 109.712 138.996 110.266 138.612 111.097H138.506V109.818H137.291V118H138.548V113.078ZM151.222 114.655C151.222 116.189 150.05 116.892 149.112 116.892C148.068 116.892 147.323 116.125 147.323 114.932V109.818H146.066V115.017C146.066 117.105 147.174 118.107 148.708 118.107C149.943 118.107 150.753 117.446 151.137 116.615H151.222V118H152.479V109.818H151.222V114.655ZM157.189 118.192C158.617 118.192 159.362 117.425 159.618 116.892H159.682V118H160.939V112.609C160.939 110.01 158.958 109.712 157.914 109.712C156.678 109.712 155.271 110.138 154.632 111.629L155.825 112.055C156.102 111.459 156.758 110.82 157.956 110.82C159.112 110.82 159.682 111.432 159.682 112.482V112.524C159.682 113.131 159.064 113.078 157.573 113.27C156.055 113.467 154.398 113.803 154.398 115.678C154.398 117.276 155.634 118.192 157.189 118.192ZM157.381 117.062C156.379 117.062 155.655 116.615 155.655 115.741C155.655 114.783 156.529 114.484 157.509 114.357C158.041 114.293 159.469 114.143 159.682 113.888V115.038C159.682 116.061 158.872 117.062 157.381 117.062ZM163.234 118H164.491V112.822C164.491 111.714 165.364 110.905 166.557 110.905C166.893 110.905 167.239 110.969 167.324 110.99V109.712C167.181 109.701 166.85 109.69 166.664 109.69C165.684 109.69 164.832 110.244 164.533 111.054H164.448V109.818H163.234V118ZM169.873 121.068C171.008 121.068 171.807 120.466 172.281 119.193L175.765 109.839L174.39 109.818L172.132 116.338H172.047L169.788 109.818H168.424L171.45 118.043L171.216 118.682C170.758 119.928 170.193 120.045 169.277 119.811L168.957 120.919C169.085 120.983 169.447 121.068 169.873 121.068ZM181.625 118H188.507V116.828H183.436V116.743L185.887 114.122C187.762 112.114 188.316 111.176 188.316 109.967C188.316 108.284 186.952 106.942 185.034 106.942C183.122 106.942 181.668 108.241 181.668 110.159H182.925C182.925 108.918 183.729 108.092 184.992 108.092C186.174 108.092 187.08 108.817 187.08 109.967C187.08 110.974 186.489 111.72 185.226 113.099L181.625 117.041V118ZM194.266 118.149C196.673 118.149 198.058 116.109 198.058 112.545C198.058 109.009 196.652 106.942 194.266 106.942C191.879 106.942 190.473 109.009 190.473 112.545C190.473 116.109 191.858 118.149 194.266 118.149ZM194.266 116.977C192.678 116.977 191.751 115.385 191.751 112.545C191.751 109.712 192.689 108.092 194.266 108.092C195.842 108.092 196.78 109.712 196.78 112.545C196.78 115.385 195.853 116.977 194.266 116.977ZM200.082 118H206.964V116.828H201.893V116.743L204.344 114.122C206.219 112.114 206.773 111.176 206.773 109.967C206.773 108.284 205.409 106.942 203.491 106.942C201.579 106.942 200.125 108.241 200.125 110.159H201.382C201.382 108.918 202.186 108.092 203.449 108.092C204.631 108.092 205.537 108.817 205.537 109.967C205.537 110.974 204.946 111.72 203.683 113.099L200.082 117.041V118ZM213 107.091H211.679L208.951 108.902V110.244L211.615 108.476H211.679V118H213V107.091Z" fill="#718EBF"/>
<path d="M284.222 98.4489H279.062V99.9205H284.222V98.4489ZM289.969 106.455H291.037L291.043 105.176C293.446 105 294.821 103.625 294.821 101.784C294.821 99.6875 292.952 98.875 291.474 98.5114L291.06 98.4034L291.071 94.7557C292.134 94.8977 292.861 95.4886 292.969 96.4205H294.662C294.616 94.6875 293.185 93.392 291.077 93.2216L291.082 91.9091H290.014L290.009 93.233C287.969 93.4375 286.474 94.7102 286.474 96.5455C286.474 98.1648 287.634 99.1136 289.503 99.6193L289.991 99.75L289.98 103.619C288.872 103.483 288.014 102.881 287.923 101.784H286.162C286.27 103.744 287.685 105.006 289.974 105.176L289.969 106.455ZM291.048 103.619L291.06 100.045C292.213 100.364 293.082 100.784 293.082 101.767C293.082 102.761 292.253 103.46 291.048 103.619ZM289.997 98.1193C289.151 97.8693 288.219 97.4205 288.224 96.4432C288.224 95.5909 288.901 94.9261 290.003 94.7614L289.997 98.1193ZM300.692 105.159C303.112 105.159 304.822 103.784 304.834 101.898C304.822 100.432 303.794 99.1989 302.493 98.9659V98.8977C303.624 98.625 304.391 97.5625 304.402 96.3068C304.391 94.5284 302.822 93.2045 300.692 93.2045C298.538 93.2045 296.97 94.5284 296.982 96.3068C296.97 97.5568 297.737 98.625 298.891 98.8977V98.9659C297.567 99.1989 296.538 100.432 296.55 101.898C296.538 103.784 298.249 105.159 300.692 105.159ZM300.692 103.722C299.237 103.722 298.317 102.949 298.328 101.784C298.317 100.574 299.317 99.7102 300.692 99.7102C302.044 99.7102 303.044 100.574 303.055 101.784C303.044 102.949 302.129 103.722 300.692 103.722ZM300.692 98.3068C299.516 98.3068 298.68 97.5625 298.692 96.4545C298.68 95.3636 299.487 94.642 300.692 94.642C301.874 94.642 302.68 95.3636 302.692 96.4545C302.68 97.5625 301.851 98.3068 300.692 98.3068ZM310.71 105.159C313.051 105.159 314.722 103.506 314.716 101.239C314.722 98.9886 313.153 97.3523 311.034 97.3523C310.17 97.3523 309.369 97.6818 308.915 98.125H308.847L309.216 94.8693H314.153V93.3636H307.756L307.102 99.2273L308.71 99.4659C309.148 99.0739 309.932 98.8068 310.636 98.8068C312.017 98.8182 313.017 99.8523 313.017 101.273C313.017 102.67 312.045 103.682 310.71 103.682C309.585 103.682 308.693 102.966 308.602 101.966H306.898C306.966 103.818 308.574 105.159 310.71 105.159ZM320.842 105.193C323.53 105.193 325.104 103 325.104 99.1875C325.104 95.4034 323.507 93.2045 320.842 93.2045C318.172 93.2045 316.581 95.3977 316.575 99.1875C316.575 102.994 318.149 105.188 320.842 105.193ZM320.842 103.676C319.268 103.676 318.32 102.097 318.32 99.1875C318.325 96.2898 319.274 94.6932 320.842 94.6932C322.405 94.6932 323.359 96.2898 323.359 99.1875C323.359 102.097 322.411 103.676 320.842 103.676Z" fill="#FF4B4A"/>
<circle cx="52.5" cy="99.5" r="27.5" fill="#FFF5D9"/>
<path d="M57.6452 109.609H44.6798C43.9859 109.609 43.3206 109.333 42.8299 108.842C42.3392 108.351 42.0632 107.686 42.0625 106.992V99.2543C42.0632 98.5604 42.3392 97.8951 42.8299 97.4044C43.3206 96.9137 43.9859 96.6377 44.6798 96.637H57.6452C58.3391 96.6377 59.0044 96.9137 59.4951 97.4044C59.9858 97.8951 60.2618 98.5604 60.2625 99.2543V106.992C60.2618 107.686 59.9858 108.351 59.4951 108.842C59.0044 109.333 58.3391 109.609 57.6452 109.609ZM44.6798 98.2776C44.4209 98.2779 44.1726 98.3809 43.9895 98.564C43.8064 98.7471 43.7034 98.9954 43.7031 99.2543V106.992C43.7034 107.251 43.8064 107.499 43.9895 107.682C44.1726 107.865 44.4209 107.968 44.6798 107.969H57.6452C57.9041 107.968 58.1524 107.865 58.3355 107.682C58.5186 107.499 58.6216 107.251 58.6219 106.992V99.2543C58.6216 98.9954 58.5186 98.7471 58.3355 98.564C58.1524 98.3809 57.9041 98.2779 57.6452 98.2776H44.6798Z" fill="#FFBB38"/>
<path d="M61.3212 105.192H59.4422C59.2246 105.192 59.016 105.105 58.8621 104.951C58.7083 104.798 58.6219 104.589 58.6219 104.371C58.6219 104.154 58.7083 103.945 58.8621 103.791C59.016 103.638 59.2246 103.551 59.4422 103.551H61.3212C61.58 103.551 61.828 103.447 62.0109 103.264C62.1937 103.081 62.2966 102.833 62.2969 102.574V94.8366C62.2967 94.5778 62.1939 94.3295 62.0111 94.1463C61.8282 93.9632 61.5801 93.86 61.3212 93.8594H48.3559C48.097 93.8597 47.8487 93.9627 47.6656 94.1458C47.4825 94.3289 47.3795 94.5771 47.3792 94.8361V97.4567C47.3792 97.6743 47.2928 97.8829 47.1389 98.0368C46.9851 98.1906 46.7765 98.277 46.5589 98.277C46.3413 98.277 46.1327 98.1906 45.9789 98.0368C45.825 97.8829 45.7386 97.6743 45.7386 97.4567V94.8366C45.7392 94.1426 46.0151 93.4772 46.5058 92.9863C46.9965 92.4955 47.6619 92.2195 48.3559 92.2188H61.3212C62.0151 92.2198 62.6802 92.496 63.1707 92.9867C63.6611 93.4775 63.9369 94.1428 63.9375 94.8366V102.574C63.9368 103.268 63.6609 103.933 63.1705 104.424C62.68 104.915 62.015 105.191 61.3212 105.192Z" fill="#FFBB38"/>
<path d="M59.4422 103.746H42.8828C42.6653 103.746 42.4566 103.66 42.3028 103.506C42.1489 103.352 42.0625 103.144 42.0625 102.926V100.171C42.0625 99.9533 42.1489 99.7446 42.3028 99.5908C42.4566 99.437 42.6653 99.3505 42.8828 99.3505H59.4422C59.6597 99.3505 59.8684 99.437 60.0222 99.5908C60.1761 99.7446 60.2625 99.9533 60.2625 100.171V102.926C60.2625 103.144 60.1761 103.352 60.0222 103.506C59.8684 103.66 59.6597 103.746 59.4422 103.746ZM43.7031 102.106H58.6219V100.991H43.7031V102.106Z" fill="#FFBB38"/>
<path d="M102.801 211.364V219.614C102.795 220.955 102.17 221.67 101.057 221.67C100.028 221.67 99.3125 221.057 99.3068 220.091H97.5625C97.5625 222.057 99.0398 223.159 101.011 223.159C103.148 223.159 104.545 221.852 104.551 219.614V211.364H102.801ZM110.732 223.176C112.635 223.176 113.982 222.239 114.368 220.818L112.76 220.528C112.453 221.352 111.714 221.773 110.749 221.773C109.294 221.773 108.317 220.83 108.271 219.148H114.476V218.545C114.476 215.392 112.589 214.159 110.612 214.159C108.18 214.159 106.578 216.011 106.578 218.693C106.578 221.403 108.158 223.176 110.732 223.176ZM108.277 217.875C108.345 216.636 109.243 215.562 110.624 215.562C111.942 215.562 112.805 216.54 112.811 217.875H108.277ZM116.361 223H118.06V217.619C118.06 216.443 118.884 215.625 119.849 215.625C120.793 215.625 121.446 216.25 121.446 217.199V223H123.139V217.438C123.139 216.386 123.781 215.625 124.889 215.625C125.787 215.625 126.526 216.125 126.526 217.307V223H128.224V217.148C128.224 215.153 127.111 214.159 125.531 214.159C124.276 214.159 123.332 214.761 122.912 215.693H122.821C122.44 214.739 121.639 214.159 120.474 214.159C119.321 214.159 118.463 214.733 118.099 215.693H117.991V214.273H116.361V223ZM130.501 223H132.2V214.273H130.501V223ZM131.359 212.926C131.945 212.926 132.433 212.472 132.433 211.915C132.433 211.358 131.945 210.898 131.359 210.898C130.768 210.898 130.286 211.358 130.286 211.915C130.286 212.472 130.768 212.926 131.359 212.926ZM141.135 223H142.908L145.357 214.284H145.447L147.896 223H149.663L152.896 211.364H151.044L148.783 220.381H148.675L146.317 211.364H144.487L142.129 220.375H142.021L139.754 211.364H137.908L141.135 223ZM154.361 223H156.06V214.273H154.361V223ZM155.219 212.926C155.804 212.926 156.293 212.472 156.293 211.915C156.293 211.358 155.804 210.898 155.219 210.898C154.628 210.898 154.145 211.358 154.145 211.915C154.145 212.472 154.628 212.926 155.219 212.926ZM160.044 211.364H158.345V223H160.044V211.364ZM168.869 216.403C168.517 215.045 167.455 214.159 165.568 214.159C163.597 214.159 162.199 215.199 162.199 216.744C162.199 217.983 162.949 218.807 164.585 219.17L166.062 219.494C166.903 219.682 167.295 220.057 167.295 220.602C167.295 221.278 166.574 221.807 165.46 221.807C164.443 221.807 163.79 221.369 163.585 220.511L161.943 220.761C162.227 222.307 163.511 223.176 165.472 223.176C167.58 223.176 169.04 222.057 169.04 220.477C169.04 219.244 168.256 218.483 166.653 218.114L165.267 217.795C164.307 217.568 163.892 217.244 163.898 216.653C163.892 215.983 164.619 215.506 165.585 215.506C166.642 215.506 167.131 216.091 167.33 216.676L168.869 216.403ZM174.584 223.176C177.044 223.176 178.652 221.375 178.652 218.676C178.652 215.96 177.044 214.159 174.584 214.159C172.124 214.159 170.516 215.96 170.516 218.676C170.516 221.375 172.124 223.176 174.584 223.176ZM174.589 221.75C172.982 221.75 172.232 220.347 172.232 218.67C172.232 217 172.982 215.58 174.589 215.58C176.186 215.58 176.936 217 176.936 218.67C176.936 220.347 176.186 221.75 174.589 221.75ZM182.247 217.818C182.247 216.426 183.099 215.631 184.281 215.631C185.435 215.631 186.134 216.386 186.134 217.653V223H187.832V217.449C187.832 215.29 186.645 214.159 184.861 214.159C183.548 214.159 182.69 214.767 182.287 215.693H182.179V214.273H180.548V223H182.247V217.818Z" fill="#232323"/>
<path d="M98.1293 248H105.011V246.828H99.9403V246.743L102.391 244.122C104.266 242.114 104.82 241.176 104.82 239.967C104.82 238.284 103.456 236.942 101.538 236.942C99.6261 236.942 98.1719 238.241 98.1719 240.159H99.429C99.429 238.918 100.233 238.092 101.496 238.092C102.678 238.092 103.584 238.817 103.584 239.967C103.584 240.974 102.993 241.72 101.73 243.099L98.1293 247.041V248ZM111.047 237.091H109.725L106.998 238.902V240.244L109.662 238.476H109.725V248H111.047V237.091ZM122.771 237.091V244.889C122.771 246.248 122.121 246.977 120.981 246.977C119.942 246.977 119.191 246.37 119.191 245.443H117.891C117.891 247.121 119.191 248.149 120.981 248.149C122.877 248.149 124.092 246.983 124.092 244.889V237.091H122.771ZM128.976 248.192C130.404 248.192 131.15 247.425 131.405 246.892H131.469V248H132.726V242.609C132.726 240.01 130.745 239.712 129.701 239.712C128.465 239.712 127.059 240.138 126.419 241.629L127.613 242.055C127.89 241.459 128.545 240.82 129.743 240.82C130.899 240.82 131.469 241.432 131.469 242.482V242.524C131.469 243.131 130.851 243.078 129.36 243.27C127.842 243.467 126.185 243.803 126.185 245.678C126.185 247.276 127.421 248.192 128.976 248.192ZM129.168 247.062C128.167 247.062 127.442 246.615 127.442 245.741C127.442 244.783 128.316 244.484 129.296 244.357C129.828 244.293 131.256 244.143 131.469 243.888V245.038C131.469 246.061 130.659 247.062 129.168 247.062ZM136.278 243.078C136.278 241.651 137.162 240.841 138.366 240.841C139.532 240.841 140.241 241.603 140.241 242.886V248H141.498V242.801C141.498 240.713 140.385 239.712 138.728 239.712C137.492 239.712 136.725 240.266 136.342 241.097H136.235V239.818H135.021V248H136.278V243.078ZM148.951 244.655C148.951 246.189 147.779 246.892 146.842 246.892C145.798 246.892 145.052 246.125 145.052 244.932V239.818H143.795V245.017C143.795 247.105 144.903 248.107 146.437 248.107C147.673 248.107 148.483 247.446 148.866 246.615H148.951V248H150.208V239.818H148.951V244.655ZM154.919 248.192C156.346 248.192 157.092 247.425 157.348 246.892H157.411V248H158.669V242.609C158.669 240.01 156.687 239.712 155.643 239.712C154.407 239.712 153.001 240.138 152.362 241.629L153.555 242.055C153.832 241.459 154.487 240.82 155.686 240.82C156.842 240.82 157.411 241.432 157.411 242.482V242.524C157.411 243.131 156.794 243.078 155.302 243.27C153.784 243.467 152.127 243.803 152.127 245.678C152.127 247.276 153.363 248.192 154.919 248.192ZM155.11 247.062C154.109 247.062 153.384 246.615 153.384 245.741C153.384 244.783 154.258 244.484 155.238 244.357C155.771 244.293 157.198 244.143 157.411 243.888V245.038C157.411 246.061 156.602 247.062 155.11 247.062ZM160.963 248H162.22V242.822C162.22 241.714 163.094 240.905 164.287 240.905C164.623 240.905 164.969 240.969 165.054 240.99V239.712C164.91 239.701 164.58 239.69 164.393 239.69C163.413 239.69 162.561 240.244 162.263 241.054H162.178V239.818H160.963V248ZM167.603 251.068C168.737 251.068 169.536 250.466 170.01 249.193L173.494 239.839L172.12 239.818L169.861 246.338H169.776L167.518 239.818H166.154L169.18 248.043L168.945 248.682C168.487 249.928 167.922 250.045 167.006 249.811L166.687 250.919C166.814 250.983 167.177 251.068 167.603 251.068ZM179.355 248H186.237V246.828H181.166V246.743L183.616 244.122C185.491 242.114 186.045 241.176 186.045 239.967C186.045 238.284 184.682 236.942 182.764 236.942C180.852 236.942 179.397 238.241 179.397 240.159H180.655C180.655 238.918 181.459 238.092 182.721 238.092C183.904 238.092 184.809 238.817 184.809 239.967C184.809 240.974 184.218 241.72 182.956 243.099L179.355 247.041V248ZM191.995 248.149C194.403 248.149 195.788 246.109 195.788 242.545C195.788 239.009 194.381 236.942 191.995 236.942C189.609 236.942 188.203 239.009 188.203 242.545C188.203 246.109 189.587 248.149 191.995 248.149ZM191.995 246.977C190.408 246.977 189.481 245.385 189.481 242.545C189.481 239.712 190.418 238.092 191.995 238.092C193.572 238.092 194.509 239.712 194.509 242.545C194.509 245.385 193.582 246.977 191.995 246.977ZM197.812 248H204.694V246.828H199.623V246.743L202.073 244.122C203.948 242.114 204.502 241.176 204.502 239.967C204.502 238.284 203.139 236.942 201.221 236.942C199.309 236.942 197.854 238.241 197.854 240.159H199.112C199.112 238.918 199.916 238.092 201.178 238.092C202.361 238.092 203.266 238.817 203.266 239.967C203.266 240.974 202.675 241.72 201.413 243.099L197.812 247.041V248ZM210.729 237.091H209.408L206.681 238.902V240.244L209.344 238.476H209.408V248H210.729V237.091Z" fill="#718EBF"/>
<path d="M264.359 233.045H265.888V229.966H268.967V228.438H265.888V225.364H264.359V228.438H261.286V229.966H264.359V233.045ZM275.078 236.455H276.146L276.152 235.176C278.555 235 279.93 233.625 279.93 231.784C279.93 229.688 278.061 228.875 276.584 228.511L276.169 228.403L276.18 224.756C277.243 224.898 277.97 225.489 278.078 226.42H279.771C279.726 224.688 278.294 223.392 276.186 223.222L276.192 221.909H275.124L275.118 223.233C273.078 223.438 271.584 224.71 271.584 226.545C271.584 228.165 272.743 229.114 274.612 229.619L275.101 229.75L275.089 233.619C273.982 233.483 273.124 232.881 273.033 231.784H271.271C271.379 233.744 272.794 235.006 275.084 235.176L275.078 236.455ZM276.158 233.619L276.169 230.045C277.322 230.364 278.192 230.784 278.192 231.767C278.192 232.761 277.362 233.46 276.158 233.619ZM275.107 228.119C274.26 227.869 273.328 227.42 273.334 226.443C273.334 225.591 274.01 224.926 275.112 224.761L275.107 228.119ZM285.71 235.159C288.051 235.159 289.722 233.506 289.716 231.239C289.722 228.989 288.153 227.352 286.034 227.352C285.17 227.352 284.369 227.682 283.915 228.125H283.847L284.216 224.869H289.153V223.364H282.756L282.102 229.227L283.71 229.466C284.148 229.074 284.932 228.807 285.636 228.807C287.017 228.818 288.017 229.852 288.017 231.273C288.017 232.67 287.045 233.682 285.71 233.682C284.585 233.682 283.693 232.966 283.602 231.966H281.898C281.966 233.818 283.574 235.159 285.71 235.159ZM293.618 233.409H291.982L291.925 234.045C291.794 235.585 291.43 237.136 291.277 237.841H292.482C292.754 237.097 293.357 235.392 293.533 234.028L293.618 233.409ZM295.75 232.727H301.267V235H302.943V232.727H304.483V231.239H302.943V223.364H300.778L295.75 231.307V232.727ZM301.278 231.239H297.591V231.148L301.188 225.455H301.278V231.239ZM310.514 235.193C313.202 235.193 314.776 233 314.776 229.188C314.776 225.403 313.179 223.205 310.514 223.205C307.844 223.205 306.253 225.398 306.247 229.188C306.247 232.994 307.821 235.188 310.514 235.193ZM310.514 233.676C308.94 233.676 307.991 232.097 307.991 229.188C307.997 226.29 308.946 224.693 310.514 224.693C312.077 224.693 313.031 226.29 313.031 229.188C313.031 232.097 312.082 233.676 310.514 233.676ZM320.842 235.193C323.53 235.193 325.104 233 325.104 229.188C325.104 225.403 323.507 223.205 320.842 223.205C318.172 223.205 316.581 225.398 316.575 229.188C316.575 232.994 318.149 235.188 320.842 235.193ZM320.842 233.676C319.268 233.676 318.32 232.097 318.32 229.188C318.325 226.29 319.274 224.693 320.842 224.693C322.405 224.693 323.359 226.29 323.359 229.188C323.359 232.097 322.411 233.676 320.842 233.676Z" fill="#41D4A8"/>
<circle cx="52.5" cy="229.5" r="27.5" fill="#DCFAF8"/>
<path d="M53.0001 227.379C53.4962 227.379 53.9013 227.783 53.9013 228.279C53.9013 228.732 54.2693 229.099 54.7219 229.099C55.1736 229.099 55.5415 228.732 55.5415 228.279C55.5415 227.167 54.817 226.229 53.8197 225.886V225.42C53.8197 224.969 53.4528 224.6 53.0001 224.6C52.5464 224.6 52.1795 224.969 52.1795 225.42V225.886C51.1822 226.229 50.4597 227.167 50.4597 228.279C50.4597 229.682 51.5987 230.821 53.0001 230.821C53.4962 230.821 53.9013 231.226 53.9013 231.722C53.9013 232.219 53.4962 232.623 53.0001 232.623C52.504 232.623 52.0999 232.219 52.0999 231.722C52.0999 231.269 51.732 230.901 51.2793 230.901C50.8256 230.901 50.4597 231.269 50.4597 231.722C50.4597 232.834 51.1822 233.771 52.1795 234.114V234.579C52.1795 235.033 52.5464 235.401 53.0001 235.401C53.4528 235.401 53.8197 235.033 53.8197 234.579V234.114C54.817 233.771 55.5415 232.834 55.5415 231.722C55.5415 230.32 54.4016 229.18 53.0001 229.18C52.504 229.18 52.0999 228.776 52.0999 228.279C52.0999 227.783 52.504 227.379 53.0001 227.379ZM59.872 234.555C60.274 234.767 60.769 234.613 60.9799 234.214C61.662 232.925 62.0217 231.468 62.0217 230C62.0217 225.027 57.9734 220.979 53.0001 220.979C48.0258 220.979 43.9786 225.027 43.9786 230C43.9786 234.974 48.0258 239.022 53.0001 239.022C54.446 239.022 55.8826 238.672 57.1548 238.01C57.5569 237.802 57.7129 237.305 57.5042 236.904C57.2954 236.504 56.8004 236.345 56.3973 236.555C55.3441 237.104 54.2 237.382 53.0001 237.382C48.9301 237.382 45.6177 234.071 45.6177 230C45.6177 225.931 48.9301 222.619 53.0001 222.619C57.0701 222.619 60.3825 225.931 60.3825 230C60.3825 231.202 60.0869 232.394 59.5309 233.446C59.318 233.847 59.471 234.343 59.872 234.555ZM53.0001 217.697C50.6241 217.697 48.3173 218.377 46.3298 219.662C45.9484 219.908 45.8399 220.415 46.0859 220.796C46.3329 221.176 46.8383 221.283 47.2207 221.039C48.9405 219.927 50.9414 219.338 53.0001 219.338C58.8798 219.338 63.6619 224.121 63.6619 230C63.6619 235.88 58.8798 240.663 53.0001 240.663C47.1204 240.663 42.3373 235.88 42.3373 230C42.3373 227.961 42.9151 225.978 44.0096 224.267C44.2535 223.885 44.1419 223.377 43.7594 223.133C43.3781 222.889 42.8706 223.001 42.6278 223.382C41.3648 225.357 40.6971 227.648 40.6971 230C40.6971 236.785 46.2151 242.303 53.0001 242.303C59.7841 242.303 65.3031 236.785 65.3031 230C65.3031 223.217 59.7841 217.697 53.0001 217.697Z" fill="#16DBCC"/>
</svg>
