<svg width="730" height="367" viewBox="0 0 730 367" fill="none" xmlns="http://www.w3.org/2000/svg">
<path d="M4.94531 22L0.429688 6H3.54688L6.42969 17.7578H6.57813L9.65625 6H12.4922L15.5781 17.7656H15.7188L18.6016 6H21.7188L17.2031 22H14.3438L11.1406 10.7734H11.0156L7.80469 22H4.94531ZM27.6914 22.2344C26.4883 22.2344 25.4492 21.9844 24.5742 21.4844C23.7044 20.9792 23.0352 20.2656 22.5664 19.3437C22.0977 18.4167 21.8633 17.3255 21.8633 16.0703C21.8633 14.8359 22.0977 13.7526 22.5664 12.8203C23.0404 11.8828 23.7018 11.1536 24.5508 10.6328C25.3997 10.1068 26.3971 9.84375 27.543 9.84375C28.2826 9.84375 28.9805 9.96354 29.6367 10.2031C30.2982 10.4375 30.8815 10.8021 31.3867 11.2969C31.8971 11.7917 32.2982 12.4219 32.5898 13.1875C32.8815 13.9479 33.0273 14.8542 33.0273 15.9062V16.7734H23.1914V14.8672H30.3164C30.3112 14.3255 30.194 13.8437 29.9648 13.4219C29.7357 12.9948 29.4154 12.6589 29.0039 12.4141C28.5977 12.1693 28.1237 12.0469 27.582 12.0469C27.0039 12.0469 26.4961 12.1875 26.0586 12.4687C25.6211 12.7448 25.2799 13.1094 25.0352 13.5625C24.7956 14.0104 24.6732 14.5026 24.668 15.0391V16.7031C24.668 17.401 24.7956 18 25.0508 18.5C25.306 18.9948 25.6628 19.375 26.1211 19.6406C26.5794 19.901 27.1159 20.0312 27.7305 20.0312C28.1419 20.0312 28.5143 19.974 28.8477 19.8594C29.181 19.7396 29.4701 19.5651 29.7148 19.3359C29.9596 19.1068 30.1445 18.8229 30.2695 18.4844L32.9102 18.7812C32.7435 19.4792 32.4258 20.0885 31.957 20.6094C31.4935 21.125 30.8997 21.526 30.1758 21.8125C29.4518 22.0937 28.6237 22.2344 27.6914 22.2344ZM40.7324 22.2344C39.5293 22.2344 38.4902 21.9844 37.6152 21.4844C36.7454 20.9792 36.0762 20.2656 35.6074 19.3437C35.1387 18.4167 34.9043 17.3255 34.9043 16.0703C34.9043 14.8359 35.1387 13.7526 35.6074 12.8203C36.0814 11.8828 36.7428 11.1536 37.5918 10.6328C38.4408 10.1068 39.4382 9.84375 40.584 9.84375C41.3236 9.84375 42.0215 9.96354 42.6777 10.2031C43.3392 10.4375 43.9225 10.8021 44.4277 11.2969C44.9382 11.7917 45.3392 12.4219 45.6309 13.1875C45.9225 13.9479 46.0684 14.8542 46.0684 15.9062V16.7734H36.2324V14.8672H43.3574C43.3522 14.3255 43.235 13.8437 43.0059 13.4219C42.7767 12.9948 42.4564 12.6589 42.0449 12.4141C41.6387 12.1693 41.1647 12.0469 40.623 12.0469C40.0449 12.0469 39.5371 12.1875 39.0996 12.4687C38.6621 12.7448 38.321 13.1094 38.0762 13.5625C37.8366 14.0104 37.7142 14.5026 37.709 15.0391V16.7031C37.709 17.401 37.8366 18 38.0918 18.5C38.347 18.9948 38.7038 19.375 39.1621 19.6406C39.6204 19.901 40.1569 20.0312 40.7715 20.0312C41.1829 20.0312 41.5553 19.974 41.8887 19.8594C42.222 19.7396 42.5111 19.5651 42.7559 19.3359C43.0007 19.1068 43.1855 18.8229 43.3105 18.4844L45.9512 18.7812C45.7845 19.4792 45.4668 20.0885 44.998 20.6094C44.5345 21.125 43.9408 21.526 43.2168 21.8125C42.4928 22.0937 41.6647 22.2344 40.7324 22.2344ZM51.0391 18.2344L51.0313 14.8203H51.4844L55.7969 10H59.1016L53.7969 15.9062H53.2109L51.0391 18.2344ZM48.4609 22V6H51.2891V22H48.4609ZM55.9922 22L52.0859 16.5391L53.9922 14.5469L59.375 22H55.9922ZM63.8145 6V22H60.9863V6H63.8145ZM68.4805 26.5C68.0951 26.5 67.7383 26.4688 67.4102 26.4063C67.0872 26.349 66.8294 26.2813 66.6367 26.2031L67.293 24C67.7044 24.1198 68.0716 24.1771 68.3945 24.1719C68.7174 24.1667 69.0013 24.0651 69.2461 23.8672C69.4961 23.6745 69.707 23.3516 69.8789 22.8984L70.1211 22.25L65.7695 10H68.7695L71.5352 19.0625H71.6602L74.4336 10H77.4414L72.6367 23.4531C72.4128 24.0885 72.1159 24.6328 71.7461 25.0859C71.3763 25.5443 70.9232 25.8932 70.3867 26.1328C69.8555 26.3776 69.2201 26.5 68.4805 26.5ZM87.0352 22H83.9414L89.5742 6H93.1523L98.793 22H95.6992L91.4258 9.28125H91.3008L87.0352 22ZM87.1367 15.7266H95.5742V18.0547H87.1367V15.7266ZM105.645 22.2344C104.447 22.2344 103.418 21.9714 102.559 21.4453C101.704 20.9193 101.046 20.1927 100.582 19.2656C100.124 18.3333 99.8945 17.2604 99.8945 16.0469C99.8945 14.8281 100.129 13.7526 100.598 12.8203C101.066 11.8828 101.728 11.1536 102.582 10.6328C103.441 10.1068 104.457 9.84375 105.629 9.84375C106.603 9.84375 107.465 10.0234 108.215 10.3828C108.97 10.737 109.572 11.2396 110.02 11.8906C110.467 12.5365 110.723 13.2917 110.785 14.1562H108.082C107.973 13.5781 107.712 13.0964 107.301 12.7109C106.895 12.3203 106.35 12.125 105.668 12.125C105.09 12.125 104.582 12.2812 104.145 12.5937C103.707 12.901 103.366 13.3437 103.121 13.9219C102.882 14.5 102.762 15.1927 102.762 16C102.762 16.8177 102.882 17.5208 103.121 18.1094C103.361 18.6927 103.697 19.1432 104.129 19.4609C104.566 19.7734 105.079 19.9297 105.668 19.9297C106.085 19.9297 106.457 19.8516 106.785 19.6953C107.118 19.5339 107.397 19.3021 107.621 19C107.845 18.6979 107.999 18.3307 108.082 17.8984H110.785C110.717 18.7474 110.467 19.5 110.035 20.1562C109.603 20.8073 109.014 21.3177 108.27 21.6875C107.525 22.0521 106.65 22.2344 105.645 22.2344ZM119.1 10V12.1875H112.201V10H119.1ZM113.904 7.125H116.732V18.3906C116.732 18.7708 116.79 19.0625 116.904 19.2656C117.024 19.4635 117.18 19.599 117.373 19.6719C117.566 19.7448 117.779 19.7812 118.014 19.7812C118.191 19.7812 118.352 19.7682 118.498 19.7422C118.649 19.7161 118.764 19.6927 118.842 19.6719L119.318 21.8828C119.167 21.9349 118.951 21.9922 118.67 22.0547C118.394 22.1172 118.055 22.1536 117.654 22.1641C116.946 22.1849 116.308 22.0781 115.74 21.8437C115.173 21.6042 114.722 21.2344 114.389 20.7344C114.061 20.2344 113.899 19.6094 113.904 18.8594V7.125ZM121.465 22V10H124.293V22H121.465ZM122.887 8.29688C122.439 8.29688 122.053 8.14844 121.73 7.85156C121.408 7.54948 121.246 7.1875 121.246 6.76562C121.246 6.33854 121.408 5.97656 121.73 5.67969C122.053 5.3776 122.439 5.22656 122.887 5.22656C123.34 5.22656 123.725 5.3776 124.043 5.67969C124.366 5.97656 124.527 6.33854 124.527 6.76562C124.527 7.1875 124.366 7.54948 124.043 7.85156C123.725 8.14844 123.34 8.29688 122.887 8.29688ZM137.92 10L133.646 22H130.521L126.248 10H129.264L132.021 18.9141H132.146L134.912 10H137.92ZM139.877 22V10H142.705V22H139.877ZM141.299 8.29688C140.851 8.29688 140.465 8.14844 140.143 7.85156C139.82 7.54948 139.658 7.1875 139.658 6.76562C139.658 6.33854 139.82 5.97656 140.143 5.67969C140.465 5.3776 140.851 5.22656 141.299 5.22656C141.752 5.22656 142.137 5.3776 142.455 5.67969C142.778 5.97656 142.939 6.33854 142.939 6.76562C142.939 7.1875 142.778 7.54948 142.455 7.85156C142.137 8.14844 141.752 8.29688 141.299 8.29688ZM151.605 10V12.1875H144.707V10H151.605ZM146.41 7.125H149.238V18.3906C149.238 18.7708 149.296 19.0625 149.41 19.2656C149.53 19.4635 149.686 19.599 149.879 19.6719C150.072 19.7448 150.285 19.7812 150.52 19.7812C150.697 19.7812 150.858 19.7682 151.004 19.7422C151.155 19.7161 151.27 19.6927 151.348 19.6719L151.824 21.8828C151.673 21.9349 151.457 21.9922 151.176 22.0547C150.9 22.1172 150.561 22.1536 150.16 22.1641C149.452 22.1849 148.814 22.0781 148.246 21.8437C147.678 21.6042 147.228 21.2344 146.895 20.7344C146.566 20.2344 146.405 19.6094 146.41 18.8594V7.125ZM155.729 26.5C155.343 26.5 154.986 26.4688 154.658 26.4063C154.335 26.349 154.077 26.2813 153.885 26.2031L154.541 24C154.952 24.1198 155.32 24.1771 155.643 24.1719C155.965 24.1667 156.249 24.0651 156.494 23.8672C156.744 23.6745 156.955 23.3516 157.127 22.8984L157.369 22.25L153.018 10H156.018L158.783 19.0625H158.908L161.682 10H164.689L159.885 23.4531C159.661 24.0885 159.364 24.6328 158.994 25.0859C158.624 25.5443 158.171 25.8932 157.635 26.1328C157.104 26.3776 156.468 26.5 155.729 26.5Z" fill="#343C6A"/>
<rect y="45" width="730" height="322" rx="25" fill="white"/>
<rect x="69" y="121" width="631" height="1" fill="#F3F3F5"/>
<rect x="69" y="158" width="631" height="1" fill="#F3F3F5"/>
<rect x="69" y="195" width="631" height="1" fill="#F3F3F5"/>
<rect x="69" y="232" width="631" height="1" fill="#F3F3F5"/>
<rect x="69" y="269" width="631" height="1" fill="#F3F3F5"/>
<rect x="69" y="306" width="631" height="1" fill="#F3F3F5"/>
<path d="M111.646 328.909H112.754C112.704 327.483 111.388 326.416 109.56 326.416C107.75 326.416 106.328 327.469 106.328 329.057C106.328 330.331 107.252 331.088 108.729 331.513L109.892 331.845C110.889 332.122 111.776 332.473 111.776 333.415C111.776 334.449 110.778 335.132 109.467 335.132C108.341 335.132 107.344 334.634 107.252 333.562H106.07C106.18 335.114 107.436 336.166 109.467 336.166C111.646 336.166 112.884 334.966 112.884 333.433C112.884 331.661 111.203 331.088 110.225 330.83L109.264 330.571C108.563 330.386 107.436 330.017 107.436 329.001C107.436 328.097 108.267 327.432 109.523 327.432C110.668 327.432 111.536 327.977 111.646 328.909ZM116.705 336.166C117.942 336.166 118.588 335.501 118.81 335.04H118.865V336H119.955V331.328C119.955 329.075 118.238 328.817 117.333 328.817C116.262 328.817 115.043 329.186 114.489 330.479L115.523 330.848C115.763 330.331 116.331 329.777 117.37 329.777C118.371 329.777 118.865 330.308 118.865 331.217V331.254C118.865 331.781 118.33 331.734 117.037 331.901C115.722 332.071 114.286 332.362 114.286 333.987C114.286 335.372 115.357 336.166 116.705 336.166ZM116.871 335.188C116.003 335.188 115.375 334.8 115.375 334.043C115.375 333.212 116.132 332.953 116.982 332.842C117.444 332.787 118.681 332.658 118.865 332.436V333.433C118.865 334.32 118.164 335.188 116.871 335.188ZM125.027 328.909H123.513V327.21H122.424V328.909H121.353V329.832H122.424V334.264C122.424 335.501 123.421 336.092 124.344 336.092C124.75 336.092 125.009 336.018 125.157 335.963L124.935 334.984C124.843 335.003 124.695 335.04 124.455 335.04C123.975 335.04 123.513 334.892 123.513 333.969V329.832H125.027V328.909Z" fill="#718EBF"/>
<path d="M199.591 328.909H200.699C200.648 327.483 199.333 326.416 197.505 326.416C195.695 326.416 194.273 327.469 194.273 329.057C194.273 330.331 195.196 331.088 196.674 331.513L197.837 331.845C198.834 332.122 199.72 332.473 199.72 333.415C199.72 334.449 198.723 335.132 197.412 335.132C196.286 335.132 195.289 334.634 195.196 333.562H194.015C194.125 335.114 195.381 336.166 197.412 336.166C199.591 336.166 200.828 334.966 200.828 333.433C200.828 331.661 199.148 331.088 198.169 330.83L197.209 330.571C196.507 330.386 195.381 330.017 195.381 329.001C195.381 328.097 196.212 327.432 197.468 327.432C198.613 327.432 199.48 327.977 199.591 328.909ZM207.032 333.101C207.032 334.43 206.016 335.04 205.204 335.04C204.299 335.04 203.653 334.375 203.653 333.341V328.909H202.563V333.415C202.563 335.224 203.523 336.092 204.853 336.092C205.924 336.092 206.626 335.52 206.958 334.8H207.032V336H208.121V328.909H207.032V333.101ZM211.206 331.734C211.206 330.497 211.973 329.795 213.016 329.795C214.027 329.795 214.641 330.456 214.641 331.568V336H215.73V331.494C215.73 329.685 214.766 328.817 213.33 328.817C212.259 328.817 211.594 329.297 211.262 330.017H211.169V328.909H210.117V336H211.206V331.734Z" fill="#718EBF"/>
<path d="M283.182 326.545V336H284.253V328.817H284.345L287.299 336H288.333L291.288 328.817H291.38V336H292.451V326.545H291.085L287.872 334.393H287.761L284.548 326.545H283.182ZM297.48 336.148C299.4 336.148 300.693 334.689 300.693 332.491C300.693 330.276 299.4 328.817 297.48 328.817C295.559 328.817 294.267 330.276 294.267 332.491C294.267 334.689 295.559 336.148 297.48 336.148ZM297.48 335.169C296.021 335.169 295.356 333.913 295.356 332.491C295.356 331.07 296.021 329.795 297.48 329.795C298.939 329.795 299.603 331.07 299.603 332.491C299.603 333.913 298.939 335.169 297.48 335.169ZM303.446 331.734C303.446 330.497 304.212 329.795 305.255 329.795C306.266 329.795 306.88 330.456 306.88 331.568V336H307.97V331.494C307.97 329.685 307.005 328.817 305.569 328.817C304.498 328.817 303.833 329.297 303.501 330.017H303.409V328.909H302.356V336H303.446V331.734Z" fill="#718EBF"/>
<path d="M374.88 327.561H377.853V336H378.998V327.561H381.971V326.545H374.88V327.561ZM387.094 333.101C387.094 334.43 386.078 335.04 385.266 335.04C384.361 335.04 383.715 334.375 383.715 333.341V328.909H382.625V333.415C382.625 335.224 383.585 336.092 384.915 336.092C385.986 336.092 386.688 335.52 387.02 334.8H387.094V336H388.183V328.909H387.094V333.101ZM393.152 336.148C394.592 336.148 395.645 335.428 395.977 334.357L394.925 334.061C394.648 334.8 394.006 335.169 393.152 335.169C391.873 335.169 390.991 334.343 390.941 332.824H396.088V332.362C396.088 329.722 394.518 328.817 393.041 328.817C391.121 328.817 389.846 330.331 389.846 332.51C389.846 334.689 391.102 336.148 393.152 336.148ZM390.941 331.882C391.014 330.779 391.795 329.795 393.041 329.795C394.223 329.795 394.98 330.682 394.98 331.882H390.941Z" fill="#718EBF"/>
<path d="M464.202 336H465.384L467.471 328.466H467.544L469.631 336H470.813L473.398 326.545H472.235L470.259 334.246H470.167L468.154 326.545H466.861L464.848 334.246H464.756L462.78 326.545H461.617L464.202 336ZM476.99 336.148C478.43 336.148 479.483 335.428 479.815 334.357L478.762 334.061C478.485 334.8 477.844 335.169 476.99 335.169C475.711 335.169 474.829 334.343 474.778 332.824H479.926V332.362C479.926 329.722 478.356 328.817 476.879 328.817C474.958 328.817 473.684 330.331 473.684 332.51C473.684 334.689 474.94 336.148 476.99 336.148ZM474.778 331.882C474.852 330.779 475.632 329.795 476.879 329.795C478.061 329.795 478.818 330.682 478.818 331.882H474.778ZM484.261 336.148C485.627 336.148 486.089 335.298 486.329 334.911H486.458V336H487.511V326.545H486.421V330.036H486.329C486.089 329.666 485.664 328.817 484.279 328.817C482.488 328.817 481.251 330.239 481.251 332.473C481.251 334.726 482.488 336.148 484.261 336.148ZM484.408 335.169C483.042 335.169 482.34 333.969 482.34 332.455C482.34 330.959 483.023 329.795 484.408 329.795C485.738 329.795 486.44 330.866 486.44 332.455C486.44 334.061 485.719 335.169 484.408 335.169Z" fill="#718EBF"/>
<path d="M553.84 327.561H556.813V336H557.958V327.561H560.931V326.545H553.84V327.561ZM563.64 331.734C563.64 330.497 564.429 329.795 565.505 329.795C566.53 329.795 567.148 330.442 567.148 331.568V336H568.238V331.494C568.238 329.671 567.268 328.817 565.819 328.817C564.702 328.817 564.065 329.283 563.732 330.017H563.64V326.545H562.55V336H563.64V331.734ZM574.7 333.101C574.7 334.43 573.684 335.04 572.872 335.04C571.967 335.04 571.321 334.375 571.321 333.341V328.909H570.231V333.415C570.231 335.224 571.191 336.092 572.521 336.092C573.592 336.092 574.294 335.52 574.626 334.8H574.7V336H575.789V328.909H574.7V333.101Z" fill="#718EBF"/>
<path d="M648.407 336H649.552V331.771H653.651V330.756H649.552V327.561H654.076V326.545H648.407V336ZM655.813 336H656.903V331.513C656.903 330.553 657.66 329.851 658.694 329.851C658.985 329.851 659.285 329.906 659.359 329.925V328.817C659.234 328.808 658.948 328.798 658.786 328.798C657.937 328.798 657.198 329.278 656.939 329.98H656.866V328.909H655.813V336ZM660.65 336H661.739V328.909H660.65V336ZM661.204 327.727C661.629 327.727 661.98 327.395 661.98 326.989C661.98 326.582 661.629 326.25 661.204 326.25C660.779 326.25 660.428 326.582 660.428 326.989C660.428 327.395 660.779 327.727 661.204 327.727Z" fill="#718EBF"/>
<path d="M37.7741 126.129C39.5745 126.129 40.8948 124.8 40.8948 122.99C40.8948 121.157 39.6206 119.814 37.8849 119.814C37.2478 119.814 36.6292 120.04 36.2414 120.349H36.186L36.5184 117.561H40.4701V116.545H35.5581L34.9857 121.199L36.0567 121.328C36.4491 121.047 37.1185 120.843 37.7002 120.848C38.9051 120.857 39.7868 121.771 39.7868 123.009C39.7868 124.223 38.9374 125.114 37.7741 125.114C36.8046 125.114 36.0336 124.49 35.9459 123.636H34.838C34.9072 125.077 36.1491 126.129 37.7741 126.129ZM45.8125 126.129C47.8991 126.129 49.0994 124.361 49.0994 121.273C49.0994 118.207 47.8807 116.416 45.8125 116.416C43.7443 116.416 42.5256 118.207 42.5256 121.273C42.5256 124.361 43.7259 126.129 45.8125 126.129ZM45.8125 125.114C44.4368 125.114 43.6335 123.733 43.6335 121.273C43.6335 118.817 44.446 117.413 45.8125 117.413C47.179 117.413 47.9915 118.817 47.9915 121.273C47.9915 123.733 47.1882 125.114 45.8125 125.114ZM53.9375 126.129C56.0241 126.129 57.2244 124.361 57.2244 121.273C57.2244 118.207 56.0057 116.416 53.9375 116.416C51.8693 116.416 50.6506 118.207 50.6506 121.273C50.6506 124.361 51.8509 126.129 53.9375 126.129ZM53.9375 125.114C52.5618 125.114 51.7585 123.733 51.7585 121.273C51.7585 118.817 52.571 117.413 53.9375 117.413C55.304 117.413 56.1165 118.817 56.1165 121.273C56.1165 123.733 55.3132 125.114 53.9375 125.114Z" fill="#718EBF"/>
<path d="M35.1663 161.061H39.6166V163H40.7061V161.061H41.9987V160.045H40.7061V153.545H39.3211L35.1663 160.119V161.061ZM39.6166 160.045H36.4035V159.972L39.5427 155.004H39.6166V160.045ZM46.8125 163.129C48.8991 163.129 50.0994 161.361 50.0994 158.273C50.0994 155.207 48.8807 153.416 46.8125 153.416C44.7443 153.416 43.5256 155.207 43.5256 158.273C43.5256 161.361 44.7259 163.129 46.8125 163.129ZM46.8125 162.114C45.4368 162.114 44.6335 160.733 44.6335 158.273C44.6335 155.817 45.446 154.413 46.8125 154.413C48.179 154.413 48.9915 155.817 48.9915 158.273C48.9915 160.733 48.1882 162.114 46.8125 162.114ZM54.9375 163.129C57.0241 163.129 58.2244 161.361 58.2244 158.273C58.2244 155.207 57.0057 153.416 54.9375 153.416C52.8693 153.416 51.6506 155.207 51.6506 158.273C51.6506 161.361 52.8509 163.129 54.9375 163.129ZM54.9375 162.114C53.5618 162.114 52.7585 160.733 52.7585 158.273C52.7585 155.817 53.571 154.413 54.9375 154.413C56.304 154.413 57.1165 155.817 57.1165 158.273C57.1165 160.733 56.3132 162.114 54.9375 162.114Z" fill="#718EBF"/>
<path d="M38.646 200.129C40.4787 200.129 41.8406 198.98 41.8406 197.433C41.8406 196.233 41.1296 195.36 39.9386 195.162V195.088C40.8942 194.797 41.4897 194.012 41.4897 192.946C41.4897 191.607 40.4325 190.416 38.6829 190.416C37.0487 190.416 35.6914 191.423 35.636 192.909H36.744C36.7855 191.967 37.6811 191.413 38.6644 191.413C39.7077 191.413 40.3817 192.046 40.3817 193.001C40.3817 193.999 39.6016 194.645 38.4798 194.645H37.7227V195.661H38.4798C39.9155 195.661 40.7141 196.39 40.7141 197.433C40.7141 198.435 39.8416 199.114 38.6275 199.114C37.5334 199.114 36.6655 198.55 36.5962 197.636H35.4329C35.5021 199.123 36.8132 200.129 38.646 200.129ZM46.8125 200.129C48.8991 200.129 50.0994 198.361 50.0994 195.273C50.0994 192.207 48.8807 190.416 46.8125 190.416C44.7443 190.416 43.5256 192.207 43.5256 195.273C43.5256 198.361 44.7259 200.129 46.8125 200.129ZM46.8125 199.114C45.4368 199.114 44.6335 197.733 44.6335 195.273C44.6335 192.817 45.446 191.413 46.8125 191.413C48.179 191.413 48.9915 192.817 48.9915 195.273C48.9915 197.733 48.1882 199.114 46.8125 199.114ZM54.9375 200.129C57.0241 200.129 58.2244 198.361 58.2244 195.273C58.2244 192.207 57.0057 190.416 54.9375 190.416C52.8693 190.416 51.6506 192.207 51.6506 195.273C51.6506 198.361 52.8509 200.129 54.9375 200.129ZM54.9375 199.114C53.5618 199.114 52.7585 197.733 52.7585 195.273C52.7585 192.817 53.571 191.413 54.9375 191.413C56.304 191.413 57.1165 192.817 57.1165 195.273C57.1165 197.733 56.3132 199.114 54.9375 199.114Z" fill="#718EBF"/>
<path d="M34.8576 237H40.8221V235.984H36.4272V235.911L38.5508 233.639C40.1758 231.899 40.6559 231.086 40.6559 230.038C40.6559 228.58 39.4741 227.416 37.8121 227.416C36.1548 227.416 34.8945 228.543 34.8945 230.205H35.984C35.984 229.129 36.6811 228.413 37.7752 228.413C38.8001 228.413 39.5849 229.041 39.5849 230.038C39.5849 230.911 39.0724 231.557 37.9783 232.753L34.8576 236.169V237ZM45.8125 237.129C47.8991 237.129 49.0994 235.361 49.0994 232.273C49.0994 229.207 47.8807 227.416 45.8125 227.416C43.7443 227.416 42.5256 229.207 42.5256 232.273C42.5256 235.361 43.7259 237.129 45.8125 237.129ZM45.8125 236.114C44.4368 236.114 43.6335 234.733 43.6335 232.273C43.6335 229.817 44.446 228.413 45.8125 228.413C47.179 228.413 47.9915 229.817 47.9915 232.273C47.9915 234.733 47.1882 236.114 45.8125 236.114ZM53.9375 237.129C56.0241 237.129 57.2244 235.361 57.2244 232.273C57.2244 229.207 56.0057 227.416 53.9375 227.416C51.8693 227.416 50.6506 229.207 50.6506 232.273C50.6506 235.361 51.8509 237.129 53.9375 237.129ZM53.9375 236.114C52.5618 236.114 51.7585 234.733 51.7585 232.273C51.7585 229.817 52.571 228.413 53.9375 228.413C55.304 228.413 56.1165 229.817 56.1165 232.273C56.1165 234.733 55.3132 236.114 53.9375 236.114Z" fill="#718EBF"/>
<path d="M38.0096 264.545H36.8647L34.5011 266.115V267.278L36.8093 265.746H36.8647V274H38.0096V264.545ZM43.8125 274.129C45.8991 274.129 47.0994 272.361 47.0994 269.273C47.0994 266.207 45.8807 264.416 43.8125 264.416C41.7443 264.416 40.5256 266.207 40.5256 269.273C40.5256 272.361 41.7259 274.129 43.8125 274.129ZM43.8125 273.114C42.4368 273.114 41.6335 271.733 41.6335 269.273C41.6335 266.817 42.446 265.413 43.8125 265.413C45.179 265.413 45.9915 266.817 45.9915 269.273C45.9915 271.733 45.1882 273.114 43.8125 273.114ZM51.9375 274.129C54.0241 274.129 55.2244 272.361 55.2244 269.273C55.2244 266.207 54.0057 264.416 51.9375 264.416C49.8693 264.416 48.6506 266.207 48.6506 269.273C48.6506 272.361 49.8509 274.129 51.9375 274.129ZM51.9375 273.114C50.5618 273.114 49.7585 271.733 49.7585 269.273C49.7585 266.817 50.571 265.413 51.9375 265.413C53.304 265.413 54.1165 266.817 54.1165 269.273C54.1165 271.733 53.3132 273.114 51.9375 273.114Z" fill="#718EBF"/>
<path d="M51.9375 311.129C54.0241 311.129 55.2244 309.361 55.2244 306.273C55.2244 303.207 54.0057 301.416 51.9375 301.416C49.8693 301.416 48.6506 303.207 48.6506 306.273C48.6506 309.361 49.8509 311.129 51.9375 311.129ZM51.9375 310.114C50.5618 310.114 49.7585 308.733 49.7585 306.273C49.7585 303.817 50.571 302.413 51.9375 302.413C53.304 302.413 54.1165 303.817 54.1165 306.273C54.1165 308.733 53.3132 310.114 51.9375 310.114Z" fill="#718EBF"/>
<rect x="94" y="128" width="15" height="178" rx="7.5" fill="#232323"/>
<rect x="121" y="215" width="15" height="91" rx="7.5" fill="#396AFF"/>
<rect x="184" y="176" width="15" height="130" rx="7.5" fill="#232323"/>
<rect x="211" y="257" width="15" height="49" rx="7.5" fill="#396AFF"/>
<rect x="274" y="184" width="15" height="122" rx="7.5" fill="#232323"/>
<rect x="301" y="208" width="15" height="98" rx="7.5" fill="#396AFF"/>
<rect x="364" y="128" width="15" height="178" rx="7.5" fill="#232323"/>
<rect x="391" y="168" width="15" height="138" rx="7.5" fill="#396AFF"/>
<rect x="454" y="249" width="15" height="57" rx="7.5" fill="#232323"/>
<rect x="481" y="215" width="15" height="91" rx="7.5" fill="#396AFF"/>
<rect x="544" y="161" width="15" height="145" rx="7.5" fill="#232323"/>
<rect x="571" y="215" width="15" height="91" rx="7.5" fill="#396AFF"/>
<rect x="634" y="159" width="15" height="147" rx="7.5" fill="#232323"/>
<rect x="661" y="180" width="15" height="126" rx="7.5" fill="#396AFF"/>
<circle cx="509.5" cy="82.5" r="7.5" fill="#396AFF"/>
<path d="M531.688 87C535.011 87 536.886 84.9332 536.886 81.5241C536.886 78.1364 535.011 76.0909 531.837 76.0909H528.321V87H531.688ZM529.642 85.8281V77.2628H531.751C534.308 77.2628 535.608 78.8821 535.608 81.5241C535.608 84.1875 534.308 85.8281 531.602 85.8281H529.642ZM538.932 87H540.189V78.8182H538.932V87ZM539.571 77.4545C540.061 77.4545 540.466 77.071 540.466 76.6023C540.466 76.1335 540.061 75.75 539.571 75.75C539.081 75.75 538.676 76.1335 538.676 76.6023C538.676 77.071 539.081 77.4545 539.571 77.4545ZM542.491 90.0682H543.748V85.7429H543.855C544.132 86.1903 544.665 87.1705 546.241 87.1705C548.287 87.1705 549.714 85.5298 549.714 82.9304C549.714 80.3523 548.287 78.7116 546.22 78.7116C544.622 78.7116 544.132 79.6918 543.855 80.1179H543.706V78.8182H542.491V90.0682ZM543.727 82.9091C543.727 81.0767 544.537 79.8409 546.071 79.8409C547.669 79.8409 548.457 81.1832 548.457 82.9091C548.457 84.6562 547.648 86.0412 546.071 86.0412C544.558 86.0412 543.727 84.7628 543.727 82.9091ZM554.956 87.1705C557.172 87.1705 558.663 85.4872 558.663 82.9517C558.663 80.3949 557.172 78.7116 554.956 78.7116C552.74 78.7116 551.248 80.3949 551.248 82.9517C551.248 85.4872 552.74 87.1705 554.956 87.1705ZM554.956 86.0412C553.273 86.0412 552.506 84.5923 552.506 82.9517C552.506 81.3111 553.273 79.8409 554.956 79.8409C556.639 79.8409 557.406 81.3111 557.406 82.9517C557.406 84.5923 556.639 86.0412 554.956 86.0412ZM566.378 80.6506C565.983 79.4893 565.099 78.7116 563.48 78.7116C561.754 78.7116 560.476 79.6918 560.476 81.0767C560.476 82.206 561.147 82.9624 562.649 83.3139L564.013 83.6335C564.838 83.8253 565.227 84.2195 565.227 84.7841C565.227 85.4872 564.481 86.0625 563.309 86.0625C562.281 86.0625 561.637 85.6204 561.413 84.7415L560.22 85.0398C560.513 86.43 561.658 87.1705 563.331 87.1705C565.232 87.1705 566.527 86.1317 566.527 84.7202C566.527 83.5803 565.813 82.8612 564.354 82.5043L563.139 82.206C562.17 81.9663 561.733 81.6413 561.733 81.0128C561.733 80.3097 562.479 79.7983 563.48 79.7983C564.577 79.7983 565.03 80.4055 565.248 80.9702L566.378 80.6506ZM568.419 87H569.676V78.8182H568.419V87ZM569.058 77.4545C569.548 77.4545 569.953 77.071 569.953 76.6023C569.953 76.1335 569.548 75.75 569.058 75.75C568.568 75.75 568.163 76.1335 568.163 76.6023C568.163 77.071 568.568 77.4545 569.058 77.4545ZM575.537 78.8182H573.79V76.858H572.533V78.8182H571.297V79.8835H572.533V84.9972C572.533 86.4247 573.683 87.1065 574.749 87.1065C575.217 87.1065 575.516 87.0213 575.686 86.9574L575.43 85.8281C575.324 85.8494 575.153 85.892 574.876 85.892C574.322 85.892 573.79 85.7216 573.79 84.6562V79.8835H575.537V78.8182Z" fill="#718EBF"/>
<circle cx="614.5" cy="82.5" r="7.5" fill="#232323"/>
<path d="M635.303 87H636.666L639.074 78.3068H639.159L641.567 87H642.93L645.913 76.0909H644.571L642.291 84.9759H642.185L639.862 76.0909H638.371L636.048 84.9759H635.942L633.662 76.0909H632.32L635.303 87ZM647.389 87H648.646V78.8182H647.389V87ZM648.028 77.4545C648.518 77.4545 648.923 77.071 648.923 76.6023C648.923 76.1335 648.518 75.75 648.028 75.75C647.538 75.75 647.133 76.1335 647.133 76.6023C647.133 77.071 647.538 77.4545 648.028 77.4545ZM654.507 78.8182H652.759V76.858H651.502V78.8182H650.267V79.8835H651.502V84.9972C651.502 86.4247 652.653 87.1065 653.718 87.1065C654.187 87.1065 654.485 87.0213 654.656 86.9574L654.4 85.8281C654.294 85.8494 654.123 85.892 653.846 85.892C653.292 85.892 652.759 85.7216 652.759 84.6562V79.8835H654.507V78.8182ZM657.831 82.0781C657.831 80.6506 658.741 79.8409 659.983 79.8409C661.165 79.8409 661.879 80.5866 661.879 81.8864V87H663.136V81.8011C663.136 79.6971 662.017 78.7116 660.345 78.7116C659.056 78.7116 658.321 79.2496 657.937 80.0966H657.831V76.0909H656.573V87H657.831V82.0781ZM668.525 87.1705C670.102 87.1705 670.635 86.1903 670.912 85.7429H671.061V87H672.275V76.0909H671.018V80.1179H670.912C670.635 79.6918 670.145 78.7116 668.547 78.7116C666.48 78.7116 665.052 80.3523 665.052 82.9304C665.052 85.5298 666.48 87.1705 668.525 87.1705ZM668.696 86.0412C667.119 86.0412 666.309 84.6562 666.309 82.9091C666.309 81.1832 667.098 79.8409 668.696 79.8409C670.23 79.8409 671.039 81.0767 671.039 82.9091C671.039 84.7628 670.208 86.0412 668.696 86.0412ZM674.752 87H676.009V81.8224C676.009 80.7145 676.883 79.9048 678.076 79.9048C678.412 79.9048 678.758 79.9688 678.843 79.9901V78.7116C678.699 78.701 678.369 78.6903 678.183 78.6903C677.202 78.6903 676.35 79.2443 676.052 80.054H675.967V78.8182H674.752V87ZM682.741 87.1918C684.168 87.1918 684.914 86.4247 685.17 85.892H685.234V87H686.491V81.6094C686.491 79.0099 684.509 78.7116 683.465 78.7116C682.229 78.7116 680.823 79.1378 680.184 80.6293L681.377 81.0554C681.654 80.4588 682.309 79.8196 683.508 79.8196C684.664 79.8196 685.234 80.4322 685.234 81.4815V81.5241C685.234 82.1314 684.616 82.0781 683.124 82.2699C681.606 82.467 679.95 82.8026 679.95 84.6776C679.95 86.2756 681.185 87.1918 682.741 87.1918ZM682.933 86.0625C681.931 86.0625 681.207 85.6151 681.207 84.7415C681.207 83.7827 682.08 83.4844 683.06 83.3565C683.593 83.2926 685.021 83.1435 685.234 82.8878V84.0384C685.234 85.0611 684.424 86.0625 682.933 86.0625ZM690.639 87H691.875L693.665 80.7145H693.792L695.582 87H696.818L699.311 78.8182H697.99L696.221 85.0611H696.136L694.41 78.8182H693.068L691.321 85.0824H691.236L689.467 78.8182H688.146L690.639 87Z" fill="#718EBF"/>
</svg>
